<mxfile host="app.diagrams.net" modified="2024-05-07T16:24:40.586Z" agent="Mozilla/5.0 (Windows NT 10.0; Win64; x64; rv:125.0) Gecko/20100101 Firefox/125.0" etag="mhWiQ7cjozFHIN5HPIhT" version="24.3.1" type="google" pages="3">
  <diagram name="Conceito" id="w_FOtQIxynuE1HzrYd4C">
    <mxGraphModel grid="1" page="0" gridSize="10" guides="1" tooltips="1" connect="1" arrows="1" fold="1" pageScale="1" pageWidth="850" pageHeight="1100" math="0" shadow="0">
      <root>
        <mxCell id="0" />
        <mxCell id="1" parent="0" />
        <mxCell id="SjRwku0gyDZNXaBm-IgH-6" value="Pedido" style="swimlane;fontStyle=0;childLayout=stackLayout;horizontal=1;startSize=30;horizontalStack=0;resizeParent=1;resizeParentMax=0;resizeLast=0;collapsible=1;marginBottom=0;whiteSpace=wrap;html=1;" vertex="1" parent="1">
          <mxGeometry x="240" y="240" width="160" height="210" as="geometry" />
        </mxCell>
        <mxCell id="SjRwku0gyDZNXaBm-IgH-36" value="&lt;div&gt;ID Pedido&lt;/div&gt;" style="text;align=left;verticalAlign=middle;spacingLeft=4;spacingRight=4;overflow=hidden;points=[[0,0.5],[1,0.5]];portConstraint=eastwest;rotatable=0;whiteSpace=wrap;html=1;" vertex="1" parent="SjRwku0gyDZNXaBm-IgH-6">
          <mxGeometry y="30" width="160" height="30" as="geometry" />
        </mxCell>
        <mxCell id="SjRwku0gyDZNXaBm-IgH-27" value="ID Cliente (Remetente)" style="text;align=left;verticalAlign=middle;spacingLeft=4;spacingRight=4;overflow=hidden;points=[[0,0.5],[1,0.5]];portConstraint=eastwest;rotatable=0;whiteSpace=wrap;html=1;" vertex="1" parent="SjRwku0gyDZNXaBm-IgH-6">
          <mxGeometry y="60" width="160" height="30" as="geometry" />
        </mxCell>
        <mxCell id="SjRwku0gyDZNXaBm-IgH-31" value="ID Cliente (Destinatário)" style="text;align=left;verticalAlign=middle;spacingLeft=4;spacingRight=4;overflow=hidden;points=[[0,0.5],[1,0.5]];portConstraint=eastwest;rotatable=0;whiteSpace=wrap;html=1;" vertex="1" parent="SjRwku0gyDZNXaBm-IgH-6">
          <mxGeometry y="90" width="160" height="30" as="geometry" />
        </mxCell>
        <mxCell id="SjRwku0gyDZNXaBm-IgH-24" value="Data de envio" style="text;align=left;verticalAlign=middle;spacingLeft=4;spacingRight=4;overflow=hidden;points=[[0,0.5],[1,0.5]];portConstraint=eastwest;rotatable=0;whiteSpace=wrap;html=1;" vertex="1" parent="SjRwku0gyDZNXaBm-IgH-6">
          <mxGeometry y="120" width="160" height="30" as="geometry" />
        </mxCell>
        <mxCell id="SjRwku0gyDZNXaBm-IgH-25" value="Data de entrega" style="text;align=left;verticalAlign=middle;spacingLeft=4;spacingRight=4;overflow=hidden;points=[[0,0.5],[1,0.5]];portConstraint=eastwest;rotatable=0;whiteSpace=wrap;html=1;" vertex="1" parent="SjRwku0gyDZNXaBm-IgH-6">
          <mxGeometry y="150" width="160" height="30" as="geometry" />
        </mxCell>
        <mxCell id="SjRwku0gyDZNXaBm-IgH-26" value="Paletes" style="text;align=left;verticalAlign=middle;spacingLeft=4;spacingRight=4;overflow=hidden;points=[[0,0.5],[1,0.5]];portConstraint=eastwest;rotatable=0;whiteSpace=wrap;html=1;" vertex="1" parent="SjRwku0gyDZNXaBm-IgH-6">
          <mxGeometry y="180" width="160" height="30" as="geometry" />
        </mxCell>
        <mxCell id="SjRwku0gyDZNXaBm-IgH-32" value="Palete" style="swimlane;fontStyle=0;childLayout=stackLayout;horizontal=1;startSize=30;horizontalStack=0;resizeParent=1;resizeParentMax=0;resizeLast=0;collapsible=1;marginBottom=0;whiteSpace=wrap;html=1;" vertex="1" parent="1">
          <mxGeometry x="440" y="240" width="160" height="120" as="geometry" />
        </mxCell>
        <mxCell id="SjRwku0gyDZNXaBm-IgH-33" value="ID Palete" style="text;align=left;verticalAlign=middle;spacingLeft=4;spacingRight=4;overflow=hidden;points=[[0,0.5],[1,0.5]];portConstraint=eastwest;rotatable=0;whiteSpace=wrap;html=1;" vertex="1" parent="SjRwku0gyDZNXaBm-IgH-32">
          <mxGeometry y="30" width="160" height="30" as="geometry" />
        </mxCell>
        <mxCell id="SjRwku0gyDZNXaBm-IgH-35" value="Peso" style="text;align=left;verticalAlign=middle;spacingLeft=4;spacingRight=4;overflow=hidden;points=[[0,0.5],[1,0.5]];portConstraint=eastwest;rotatable=0;whiteSpace=wrap;html=1;" vertex="1" parent="SjRwku0gyDZNXaBm-IgH-32">
          <mxGeometry y="60" width="160" height="30" as="geometry" />
        </mxCell>
        <mxCell id="SjRwku0gyDZNXaBm-IgH-41" value="Temperatura" style="text;align=left;verticalAlign=middle;spacingLeft=4;spacingRight=4;overflow=hidden;points=[[0,0.5],[1,0.5]];portConstraint=eastwest;rotatable=0;whiteSpace=wrap;html=1;" vertex="1" parent="SjRwku0gyDZNXaBm-IgH-32">
          <mxGeometry y="90" width="160" height="30" as="geometry" />
        </mxCell>
        <mxCell id="SjRwku0gyDZNXaBm-IgH-46" value="Camião" style="swimlane;fontStyle=0;childLayout=stackLayout;horizontal=1;startSize=30;horizontalStack=0;resizeParent=1;resizeParentMax=0;resizeLast=0;collapsible=1;marginBottom=0;whiteSpace=wrap;html=1;" vertex="1" parent="1">
          <mxGeometry x="640" y="240" width="160" height="120" as="geometry" />
        </mxCell>
        <mxCell id="SjRwku0gyDZNXaBm-IgH-47" value="ID Camião" style="text;align=left;verticalAlign=middle;spacingLeft=4;spacingRight=4;overflow=hidden;points=[[0,0.5],[1,0.5]];portConstraint=eastwest;rotatable=0;whiteSpace=wrap;html=1;" vertex="1" parent="SjRwku0gyDZNXaBm-IgH-46">
          <mxGeometry y="30" width="160" height="30" as="geometry" />
        </mxCell>
        <mxCell id="SjRwku0gyDZNXaBm-IgH-48" value="Temperatura" style="text;align=left;verticalAlign=middle;spacingLeft=4;spacingRight=4;overflow=hidden;points=[[0,0.5],[1,0.5]];portConstraint=eastwest;rotatable=0;whiteSpace=wrap;html=1;" vertex="1" parent="SjRwku0gyDZNXaBm-IgH-46">
          <mxGeometry y="60" width="160" height="30" as="geometry" />
        </mxCell>
        <mxCell id="SjRwku0gyDZNXaBm-IgH-52" value="Qtd. Máx. Paletes" style="text;align=left;verticalAlign=middle;spacingLeft=4;spacingRight=4;overflow=hidden;points=[[0,0.5],[1,0.5]];portConstraint=eastwest;rotatable=0;whiteSpace=wrap;html=1;" vertex="1" parent="SjRwku0gyDZNXaBm-IgH-46">
          <mxGeometry y="90" width="160" height="30" as="geometry" />
        </mxCell>
        <mxCell id="SjRwku0gyDZNXaBm-IgH-54" value="Rota" style="swimlane;fontStyle=0;childLayout=stackLayout;horizontal=1;startSize=30;horizontalStack=0;resizeParent=1;resizeParentMax=0;resizeLast=0;collapsible=1;marginBottom=0;whiteSpace=wrap;html=1;" vertex="1" parent="1">
          <mxGeometry x="440" y="490" width="160" height="210" as="geometry" />
        </mxCell>
        <mxCell id="SjRwku0gyDZNXaBm-IgH-87" value="ID Rota" style="text;align=left;verticalAlign=middle;spacingLeft=4;spacingRight=4;overflow=hidden;points=[[0,0.5],[1,0.5]];portConstraint=eastwest;rotatable=0;whiteSpace=wrap;html=1;" vertex="1" parent="SjRwku0gyDZNXaBm-IgH-54">
          <mxGeometry y="30" width="160" height="30" as="geometry" />
        </mxCell>
        <mxCell id="xDxk_R8OL3bPp5Dc0ODJ-7" value="ID Trabalhador (Planeador)" style="text;align=left;verticalAlign=middle;spacingLeft=4;spacingRight=4;overflow=hidden;points=[[0,0.5],[1,0.5]];portConstraint=eastwest;rotatable=0;whiteSpace=wrap;html=1;" vertex="1" parent="SjRwku0gyDZNXaBm-IgH-54">
          <mxGeometry y="60" width="160" height="30" as="geometry" />
        </mxCell>
        <mxCell id="SjRwku0gyDZNXaBm-IgH-84" value="ID Camião" style="text;align=left;verticalAlign=middle;spacingLeft=4;spacingRight=4;overflow=hidden;points=[[0,0.5],[1,0.5]];portConstraint=eastwest;rotatable=0;whiteSpace=wrap;html=1;" vertex="1" parent="SjRwku0gyDZNXaBm-IgH-54">
          <mxGeometry y="90" width="160" height="30" as="geometry" />
        </mxCell>
        <mxCell id="SjRwku0gyDZNXaBm-IgH-88" value="ID Trabalhador (Condutor)" style="text;align=left;verticalAlign=middle;spacingLeft=4;spacingRight=4;overflow=hidden;points=[[0,0.5],[1,0.5]];portConstraint=eastwest;rotatable=0;whiteSpace=wrap;html=1;" vertex="1" parent="SjRwku0gyDZNXaBm-IgH-54">
          <mxGeometry y="120" width="160" height="30" as="geometry" />
        </mxCell>
        <mxCell id="KuZheGfE6cLSWAksvTiT-8" value="Propósito (Recolha/Envio)" style="text;align=left;verticalAlign=middle;spacingLeft=4;spacingRight=4;overflow=hidden;points=[[0,0.5],[1,0.5]];portConstraint=eastwest;rotatable=0;whiteSpace=wrap;html=1;" vertex="1" parent="SjRwku0gyDZNXaBm-IgH-54">
          <mxGeometry y="150" width="160" height="30" as="geometry" />
        </mxCell>
        <mxCell id="SjRwku0gyDZNXaBm-IgH-89" value="Pedidos (em transporte)" style="text;align=left;verticalAlign=middle;spacingLeft=4;spacingRight=4;overflow=hidden;points=[[0,0.5],[1,0.5]];portConstraint=eastwest;rotatable=0;whiteSpace=wrap;html=1;" vertex="1" parent="SjRwku0gyDZNXaBm-IgH-54">
          <mxGeometry y="180" width="160" height="30" as="geometry" />
        </mxCell>
        <mxCell id="SjRwku0gyDZNXaBm-IgH-58" value="Cliente" style="swimlane;fontStyle=0;childLayout=stackLayout;horizontal=1;startSize=30;horizontalStack=0;resizeParent=1;resizeParentMax=0;resizeLast=0;collapsible=1;marginBottom=0;whiteSpace=wrap;html=1;" vertex="1" parent="1">
          <mxGeometry x="40" y="240" width="160" height="210" as="geometry" />
        </mxCell>
        <mxCell id="SjRwku0gyDZNXaBm-IgH-66" value="ID Cliente" style="text;align=left;verticalAlign=middle;spacingLeft=4;spacingRight=4;overflow=hidden;points=[[0,0.5],[1,0.5]];portConstraint=eastwest;rotatable=0;whiteSpace=wrap;html=1;" vertex="1" parent="SjRwku0gyDZNXaBm-IgH-58">
          <mxGeometry y="30" width="160" height="30" as="geometry" />
        </mxCell>
        <mxCell id="SjRwku0gyDZNXaBm-IgH-65" value="Nome" style="text;align=left;verticalAlign=middle;spacingLeft=4;spacingRight=4;overflow=hidden;points=[[0,0.5],[1,0.5]];portConstraint=eastwest;rotatable=0;whiteSpace=wrap;html=1;" vertex="1" parent="SjRwku0gyDZNXaBm-IgH-58">
          <mxGeometry y="60" width="160" height="30" as="geometry" />
        </mxCell>
        <mxCell id="SjRwku0gyDZNXaBm-IgH-64" value="Morada" style="text;align=left;verticalAlign=middle;spacingLeft=4;spacingRight=4;overflow=hidden;points=[[0,0.5],[1,0.5]];portConstraint=eastwest;rotatable=0;whiteSpace=wrap;html=1;" vertex="1" parent="SjRwku0gyDZNXaBm-IgH-58">
          <mxGeometry y="90" width="160" height="30" as="geometry" />
        </mxCell>
        <mxCell id="SjRwku0gyDZNXaBm-IgH-63" value="Telefone" style="text;align=left;verticalAlign=middle;spacingLeft=4;spacingRight=4;overflow=hidden;points=[[0,0.5],[1,0.5]];portConstraint=eastwest;rotatable=0;whiteSpace=wrap;html=1;" vertex="1" parent="SjRwku0gyDZNXaBm-IgH-58">
          <mxGeometry y="120" width="160" height="30" as="geometry" />
        </mxCell>
        <mxCell id="SjRwku0gyDZNXaBm-IgH-67" value="Email" style="text;align=left;verticalAlign=middle;spacingLeft=4;spacingRight=4;overflow=hidden;points=[[0,0.5],[1,0.5]];portConstraint=eastwest;rotatable=0;whiteSpace=wrap;html=1;" vertex="1" parent="SjRwku0gyDZNXaBm-IgH-58">
          <mxGeometry y="150" width="160" height="30" as="geometry" />
        </mxCell>
        <mxCell id="KuZheGfE6cLSWAksvTiT-1" value="Pedidos (em espera)" style="text;align=left;verticalAlign=middle;spacingLeft=4;spacingRight=4;overflow=hidden;points=[[0,0.5],[1,0.5]];portConstraint=eastwest;rotatable=0;whiteSpace=wrap;html=1;" vertex="1" parent="SjRwku0gyDZNXaBm-IgH-58">
          <mxGeometry y="180" width="160" height="30" as="geometry" />
        </mxCell>
        <mxCell id="SjRwku0gyDZNXaBm-IgH-76" value="Trabalhadores" style="swimlane;fontStyle=0;childLayout=stackLayout;horizontal=1;startSize=30;horizontalStack=0;resizeParent=1;resizeParentMax=0;resizeLast=0;collapsible=1;marginBottom=0;whiteSpace=wrap;html=1;" vertex="1" parent="1">
          <mxGeometry x="40" y="490" width="160" height="240" as="geometry" />
        </mxCell>
        <mxCell id="SjRwku0gyDZNXaBm-IgH-77" value="ID Trabalhador" style="text;align=left;verticalAlign=middle;spacingLeft=4;spacingRight=4;overflow=hidden;points=[[0,0.5],[1,0.5]];portConstraint=eastwest;rotatable=0;whiteSpace=wrap;html=1;" vertex="1" parent="SjRwku0gyDZNXaBm-IgH-76">
          <mxGeometry y="30" width="160" height="30" as="geometry" />
        </mxCell>
        <mxCell id="SjRwku0gyDZNXaBm-IgH-78" value="Nome" style="text;align=left;verticalAlign=middle;spacingLeft=4;spacingRight=4;overflow=hidden;points=[[0,0.5],[1,0.5]];portConstraint=eastwest;rotatable=0;whiteSpace=wrap;html=1;" vertex="1" parent="SjRwku0gyDZNXaBm-IgH-76">
          <mxGeometry y="60" width="160" height="30" as="geometry" />
        </mxCell>
        <mxCell id="SjRwku0gyDZNXaBm-IgH-79" value="Idade" style="text;align=left;verticalAlign=middle;spacingLeft=4;spacingRight=4;overflow=hidden;points=[[0,0.5],[1,0.5]];portConstraint=eastwest;rotatable=0;whiteSpace=wrap;html=1;" vertex="1" parent="SjRwku0gyDZNXaBm-IgH-76">
          <mxGeometry y="90" width="160" height="30" as="geometry" />
        </mxCell>
        <mxCell id="SjRwku0gyDZNXaBm-IgH-81" value="Morada" style="text;align=left;verticalAlign=middle;spacingLeft=4;spacingRight=4;overflow=hidden;points=[[0,0.5],[1,0.5]];portConstraint=eastwest;rotatable=0;whiteSpace=wrap;html=1;" vertex="1" parent="SjRwku0gyDZNXaBm-IgH-76">
          <mxGeometry y="120" width="160" height="30" as="geometry" />
        </mxCell>
        <mxCell id="SjRwku0gyDZNXaBm-IgH-82" value="Telefone" style="text;align=left;verticalAlign=middle;spacingLeft=4;spacingRight=4;overflow=hidden;points=[[0,0.5],[1,0.5]];portConstraint=eastwest;rotatable=0;whiteSpace=wrap;html=1;" vertex="1" parent="SjRwku0gyDZNXaBm-IgH-76">
          <mxGeometry y="150" width="160" height="30" as="geometry" />
        </mxCell>
        <mxCell id="SjRwku0gyDZNXaBm-IgH-91" value="Email" style="text;align=left;verticalAlign=middle;spacingLeft=4;spacingRight=4;overflow=hidden;points=[[0,0.5],[1,0.5]];portConstraint=eastwest;rotatable=0;whiteSpace=wrap;html=1;" vertex="1" parent="SjRwku0gyDZNXaBm-IgH-76">
          <mxGeometry y="180" width="160" height="30" as="geometry" />
        </mxCell>
        <mxCell id="SjRwku0gyDZNXaBm-IgH-90" value="Função" style="text;align=left;verticalAlign=middle;spacingLeft=4;spacingRight=4;overflow=hidden;points=[[0,0.5],[1,0.5]];portConstraint=eastwest;rotatable=0;whiteSpace=wrap;html=1;" vertex="1" parent="SjRwku0gyDZNXaBm-IgH-76">
          <mxGeometry y="210" width="160" height="30" as="geometry" />
        </mxCell>
        <mxCell id="SjRwku0gyDZNXaBm-IgH-92" value="Armazém" style="swimlane;fontStyle=0;childLayout=stackLayout;horizontal=1;startSize=30;horizontalStack=0;resizeParent=1;resizeParentMax=0;resizeLast=0;collapsible=1;marginBottom=0;whiteSpace=wrap;html=1;" vertex="1" parent="1">
          <mxGeometry x="240" y="490" width="160" height="180" as="geometry" />
        </mxCell>
        <mxCell id="SjRwku0gyDZNXaBm-IgH-93" value="ID Armazém" style="text;align=left;verticalAlign=middle;spacingLeft=4;spacingRight=4;overflow=hidden;points=[[0,0.5],[1,0.5]];portConstraint=eastwest;rotatable=0;whiteSpace=wrap;html=1;" vertex="1" parent="SjRwku0gyDZNXaBm-IgH-92">
          <mxGeometry y="30" width="160" height="30" as="geometry" />
        </mxCell>
        <mxCell id="SjRwku0gyDZNXaBm-IgH-94" value="Nome" style="text;align=left;verticalAlign=middle;spacingLeft=4;spacingRight=4;overflow=hidden;points=[[0,0.5],[1,0.5]];portConstraint=eastwest;rotatable=0;whiteSpace=wrap;html=1;" vertex="1" parent="SjRwku0gyDZNXaBm-IgH-92">
          <mxGeometry y="60" width="160" height="30" as="geometry" />
        </mxCell>
        <mxCell id="SjRwku0gyDZNXaBm-IgH-95" value="Trabalhadores" style="text;align=left;verticalAlign=middle;spacingLeft=4;spacingRight=4;overflow=hidden;points=[[0,0.5],[1,0.5]];portConstraint=eastwest;rotatable=0;whiteSpace=wrap;html=1;" vertex="1" parent="SjRwku0gyDZNXaBm-IgH-92">
          <mxGeometry y="90" width="160" height="30" as="geometry" />
        </mxCell>
        <mxCell id="xDxk_R8OL3bPp5Dc0ODJ-5" value="Camiões" style="text;align=left;verticalAlign=middle;spacingLeft=4;spacingRight=4;overflow=hidden;points=[[0,0.5],[1,0.5]];portConstraint=eastwest;rotatable=0;whiteSpace=wrap;html=1;" vertex="1" parent="SjRwku0gyDZNXaBm-IgH-92">
          <mxGeometry y="120" width="160" height="30" as="geometry" />
        </mxCell>
        <mxCell id="xDxk_R8OL3bPp5Dc0ODJ-3" value="Pedidos (em espera)" style="text;align=left;verticalAlign=middle;spacingLeft=4;spacingRight=4;overflow=hidden;points=[[0,0.5],[1,0.5]];portConstraint=eastwest;rotatable=0;whiteSpace=wrap;html=1;" vertex="1" parent="SjRwku0gyDZNXaBm-IgH-92">
          <mxGeometry y="150" width="160" height="30" as="geometry" />
        </mxCell>
      </root>
    </mxGraphModel>
  </diagram>
  <diagram id="fxVjzQVy69NxJ65G64rM" name="Diagrama ER (Chen)">
    <mxGraphModel grid="1" page="0" gridSize="10" guides="1" tooltips="1" connect="1" arrows="1" fold="1" pageScale="1" pageWidth="850" pageHeight="1100" math="0" shadow="0">
      <root>
        <mxCell id="0" />
        <mxCell id="1" parent="0" />
        <mxCell id="jGeChQaiJxU1rHHrMRb0-69" style="edgeStyle=elbowEdgeStyle;rounded=0;orthogonalLoop=1;jettySize=auto;html=1;endArrow=none;endFill=0;" edge="1" parent="1" source="jGeChQaiJxU1rHHrMRb0-46" target="wLQ0loJIeK5P3iTJJpUc-3">
          <mxGeometry relative="1" as="geometry" />
        </mxCell>
        <mxCell id="jGeChQaiJxU1rHHrMRb0-70" style="edgeStyle=elbowEdgeStyle;rounded=0;orthogonalLoop=1;jettySize=auto;html=1;endArrow=none;endFill=0;" edge="1" parent="1" source="jGeChQaiJxU1rHHrMRb0-46" target="wLQ0loJIeK5P3iTJJpUc-2">
          <mxGeometry relative="1" as="geometry" />
        </mxCell>
        <mxCell id="jGeChQaiJxU1rHHrMRb0-71" style="edgeStyle=elbowEdgeStyle;rounded=0;orthogonalLoop=1;jettySize=auto;html=1;endArrow=none;endFill=0;" edge="1" parent="1" source="jGeChQaiJxU1rHHrMRb0-46" target="wLQ0loJIeK5P3iTJJpUc-1">
          <mxGeometry relative="1" as="geometry" />
        </mxCell>
        <mxCell id="jGeChQaiJxU1rHHrMRb0-73" style="edgeStyle=elbowEdgeStyle;rounded=0;orthogonalLoop=1;jettySize=auto;html=1;endArrow=none;endFill=0;" edge="1" parent="1" source="jGeChQaiJxU1rHHrMRb0-46" target="jGeChQaiJxU1rHHrMRb0-50">
          <mxGeometry relative="1" as="geometry" />
        </mxCell>
        <mxCell id="IBkUMb_eTXiCGYzrwH4K-1" value="1" style="rounded=0;orthogonalLoop=1;jettySize=auto;html=1;endArrow=none;endFill=0;" edge="1" parent="1" source="jGeChQaiJxU1rHHrMRb0-46" target="N5KWp_KNqBfFTHxkn8w6-1">
          <mxGeometry relative="1" as="geometry" />
        </mxCell>
        <mxCell id="7w9H1PydJlJrpcBqJE0R-3" style="rounded=0;orthogonalLoop=1;jettySize=auto;html=1;endArrow=none;endFill=0;" edge="1" parent="1" source="jGeChQaiJxU1rHHrMRb0-46" target="7w9H1PydJlJrpcBqJE0R-1">
          <mxGeometry relative="1" as="geometry" />
        </mxCell>
        <mxCell id="jGeChQaiJxU1rHHrMRb0-46" value="Cliente" style="whiteSpace=wrap;html=1;align=center;fillColor=#d5e8d4;strokeColor=#82b366;" vertex="1" parent="1">
          <mxGeometry x="1080" y="960" width="100" height="40" as="geometry" />
        </mxCell>
        <mxCell id="jGeChQaiJxU1rHHrMRb0-50" value="Nome" style="ellipse;whiteSpace=wrap;html=1;align=center;fillColor=#dae8fc;strokeColor=#6c8ebf;" vertex="1" parent="1">
          <mxGeometry x="1200" y="810" width="80" height="40" as="geometry" />
        </mxCell>
        <mxCell id="wLQ0loJIeK5P3iTJJpUc-1" value="Morada" style="ellipse;whiteSpace=wrap;html=1;align=center;fillColor=#dae8fc;strokeColor=#6c8ebf;" vertex="1" parent="1">
          <mxGeometry x="1200" y="860" width="80" height="40" as="geometry" />
        </mxCell>
        <mxCell id="wLQ0loJIeK5P3iTJJpUc-2" value="Telefone" style="ellipse;whiteSpace=wrap;html=1;align=center;fillColor=#dae8fc;strokeColor=#6c8ebf;" vertex="1" parent="1">
          <mxGeometry x="1200" y="910" width="80" height="40" as="geometry" />
        </mxCell>
        <mxCell id="wLQ0loJIeK5P3iTJJpUc-3" value="Email" style="ellipse;whiteSpace=wrap;html=1;align=center;fillColor=#dae8fc;strokeColor=#6c8ebf;" vertex="1" parent="1">
          <mxGeometry x="1200" y="960" width="80" height="40" as="geometry" />
        </mxCell>
        <mxCell id="orbMVXnbXTKMvZdCZsPG-5" value="M" style="rounded=0;orthogonalLoop=1;jettySize=auto;html=1;endArrow=none;endFill=0;" edge="1" parent="1" source="jGeChQaiJxU1rHHrMRb0-52" target="orbMVXnbXTKMvZdCZsPG-2">
          <mxGeometry relative="1" as="geometry" />
        </mxCell>
        <mxCell id="hozf0g1_SjNWAToh8TMT-3" value="M" style="rounded=0;orthogonalLoop=1;jettySize=auto;html=1;endArrow=none;endFill=0;" edge="1" parent="1" source="jGeChQaiJxU1rHHrMRb0-52" target="hozf0g1_SjNWAToh8TMT-1">
          <mxGeometry relative="1" as="geometry" />
        </mxCell>
        <mxCell id="FQ9VwnYZ1qEMQrRQ9DTU-2" value="1" style="rounded=0;orthogonalLoop=1;jettySize=auto;html=1;endArrow=none;endFill=0;shape=link;" edge="1" parent="1" source="jGeChQaiJxU1rHHrMRb0-52" target="FQ9VwnYZ1qEMQrRQ9DTU-1">
          <mxGeometry relative="1" as="geometry" />
        </mxCell>
        <mxCell id="IBkUMb_eTXiCGYzrwH4K-2" value="M" style="rounded=0;orthogonalLoop=1;jettySize=auto;html=1;endArrow=none;endFill=0;shape=link;" edge="1" parent="1" source="jGeChQaiJxU1rHHrMRb0-52" target="N5KWp_KNqBfFTHxkn8w6-1">
          <mxGeometry relative="1" as="geometry" />
        </mxCell>
        <mxCell id="IBkUMb_eTXiCGYzrwH4K-4" value="M" style="rounded=0;orthogonalLoop=1;jettySize=auto;html=1;endArrow=none;endFill=0;shape=link;" edge="1" parent="1" source="jGeChQaiJxU1rHHrMRb0-52" target="N5KWp_KNqBfFTHxkn8w6-2">
          <mxGeometry relative="1" as="geometry" />
        </mxCell>
        <mxCell id="7w9H1PydJlJrpcBqJE0R-2" value="M" style="rounded=0;orthogonalLoop=1;jettySize=auto;html=1;endArrow=none;endFill=0;" edge="1" parent="1" source="jGeChQaiJxU1rHHrMRb0-52" target="7w9H1PydJlJrpcBqJE0R-1">
          <mxGeometry relative="1" as="geometry" />
        </mxCell>
        <mxCell id="jGeChQaiJxU1rHHrMRb0-52" value="Pedido" style="whiteSpace=wrap;html=1;align=center;fillColor=#d5e8d4;strokeColor=#82b366;" vertex="1" parent="1">
          <mxGeometry x="660" y="780" width="100" height="40" as="geometry" />
        </mxCell>
        <mxCell id="2oqlJs1P7budn2HVeYFy-1" style="rounded=0;orthogonalLoop=1;jettySize=auto;html=1;endArrow=none;endFill=0;" edge="1" parent="1" source="wLQ0loJIeK5P3iTJJpUc-6" target="jGeChQaiJxU1rHHrMRb0-52">
          <mxGeometry relative="1" as="geometry" />
        </mxCell>
        <mxCell id="wLQ0loJIeK5P3iTJJpUc-6" value="&lt;div&gt;Data de&lt;/div&gt;&lt;div&gt;Envio&lt;/div&gt;" style="ellipse;whiteSpace=wrap;html=1;align=center;fillColor=#dae8fc;strokeColor=#6c8ebf;" vertex="1" parent="1">
          <mxGeometry x="560" y="755" width="80" height="40" as="geometry" />
        </mxCell>
        <mxCell id="2oqlJs1P7budn2HVeYFy-2" style="rounded=0;orthogonalLoop=1;jettySize=auto;html=1;endArrow=none;endFill=0;" edge="1" parent="1" source="wLQ0loJIeK5P3iTJJpUc-5" target="jGeChQaiJxU1rHHrMRb0-52">
          <mxGeometry relative="1" as="geometry" />
        </mxCell>
        <mxCell id="wLQ0loJIeK5P3iTJJpUc-5" value="Data de Entrega" style="ellipse;whiteSpace=wrap;html=1;align=center;fillColor=#dae8fc;strokeColor=#6c8ebf;" vertex="1" parent="1">
          <mxGeometry x="560" y="805" width="80" height="40" as="geometry" />
        </mxCell>
        <mxCell id="uZtBNw2SRJ8BB9qcEygk-4" value="1" style="rounded=0;orthogonalLoop=1;jettySize=auto;html=1;endArrow=none;endFill=0;shape=link;" edge="1" parent="1" source="jGeChQaiJxU1rHHrMRb0-54" target="uZtBNw2SRJ8BB9qcEygk-2">
          <mxGeometry relative="1" as="geometry" />
        </mxCell>
        <mxCell id="uZtBNw2SRJ8BB9qcEygk-7" value="1" style="rounded=0;orthogonalLoop=1;jettySize=auto;html=1;endArrow=none;endFill=0;shape=link;" edge="1" parent="1" source="jGeChQaiJxU1rHHrMRb0-54" target="uZtBNw2SRJ8BB9qcEygk-5">
          <mxGeometry relative="1" as="geometry" />
        </mxCell>
        <mxCell id="hozf0g1_SjNWAToh8TMT-2" value="1" style="rounded=0;orthogonalLoop=1;jettySize=auto;html=1;endArrow=none;endFill=0;" edge="1" parent="1" source="jGeChQaiJxU1rHHrMRb0-54" target="hozf0g1_SjNWAToh8TMT-1">
          <mxGeometry relative="1" as="geometry" />
        </mxCell>
        <mxCell id="jGeChQaiJxU1rHHrMRb0-54" value="Armazém" style="whiteSpace=wrap;html=1;align=center;fillColor=#d5e8d4;strokeColor=#82b366;" vertex="1" parent="1">
          <mxGeometry x="660" y="600" width="100" height="40" as="geometry" />
        </mxCell>
        <mxCell id="2oqlJs1P7budn2HVeYFy-3" style="rounded=0;orthogonalLoop=1;jettySize=auto;html=1;endArrow=none;endFill=0;" edge="1" parent="1" source="jGeChQaiJxU1rHHrMRb0-56" target="jGeChQaiJxU1rHHrMRb0-58">
          <mxGeometry relative="1" as="geometry" />
        </mxCell>
        <mxCell id="jGeChQaiJxU1rHHrMRb0-56" value="Peso" style="ellipse;whiteSpace=wrap;html=1;align=center;fillColor=#dae8fc;strokeColor=#6c8ebf;" vertex="1" parent="1">
          <mxGeometry x="560" y="935" width="80" height="40" as="geometry" />
        </mxCell>
        <mxCell id="2oqlJs1P7budn2HVeYFy-5" style="rounded=0;orthogonalLoop=1;jettySize=auto;html=1;endArrow=none;endFill=0;" edge="1" parent="1" source="jGeChQaiJxU1rHHrMRb0-57" target="jGeChQaiJxU1rHHrMRb0-58">
          <mxGeometry relative="1" as="geometry" />
        </mxCell>
        <mxCell id="jGeChQaiJxU1rHHrMRb0-57" value="Temperatura" style="ellipse;whiteSpace=wrap;html=1;align=center;fillColor=#dae8fc;strokeColor=#6c8ebf;" vertex="1" parent="1">
          <mxGeometry x="560" y="985" width="80" height="40" as="geometry" />
        </mxCell>
        <mxCell id="FQ9VwnYZ1qEMQrRQ9DTU-3" value="M" style="rounded=0;orthogonalLoop=1;jettySize=auto;html=1;endArrow=none;endFill=0;shape=link;" edge="1" parent="1" source="jGeChQaiJxU1rHHrMRb0-58" target="FQ9VwnYZ1qEMQrRQ9DTU-1">
          <mxGeometry relative="1" as="geometry" />
        </mxCell>
        <mxCell id="jGeChQaiJxU1rHHrMRb0-58" value="Palete" style="whiteSpace=wrap;html=1;align=center;fillColor=#d5e8d4;strokeColor=#82b366;" vertex="1" parent="1">
          <mxGeometry x="660" y="960" width="100" height="40" as="geometry" />
        </mxCell>
        <mxCell id="Dahjdk3IA5JpOsfiKAcH-6" style="edgeStyle=orthogonalEdgeStyle;rounded=0;orthogonalLoop=1;jettySize=auto;html=1;endArrow=none;endFill=0;" edge="1" parent="1" source="wLQ0loJIeK5P3iTJJpUc-7" target="jGeChQaiJxU1rHHrMRb0-61">
          <mxGeometry relative="1" as="geometry">
            <Array as="points">
              <mxPoint x="990" y="340" />
            </Array>
          </mxGeometry>
        </mxCell>
        <mxCell id="wLQ0loJIeK5P3iTJJpUc-7" value="Nome" style="ellipse;whiteSpace=wrap;html=1;align=center;fontStyle=0;fillColor=#dae8fc;strokeColor=#6c8ebf;" vertex="1" parent="1">
          <mxGeometry x="900" y="320" width="80" height="40" as="geometry" />
        </mxCell>
        <mxCell id="Dahjdk3IA5JpOsfiKAcH-9" style="edgeStyle=orthogonalEdgeStyle;rounded=0;orthogonalLoop=1;jettySize=auto;html=1;endArrow=none;endFill=0;" edge="1" parent="1" source="wLQ0loJIeK5P3iTJJpUc-10" target="jGeChQaiJxU1rHHrMRb0-61">
          <mxGeometry relative="1" as="geometry">
            <Array as="points">
              <mxPoint x="990" y="340" />
            </Array>
          </mxGeometry>
        </mxCell>
        <mxCell id="wLQ0loJIeK5P3iTJJpUc-10" value="Telefone" style="ellipse;whiteSpace=wrap;html=1;align=center;fontStyle=0;fillColor=#dae8fc;strokeColor=#6c8ebf;" vertex="1" parent="1">
          <mxGeometry x="1000" y="320" width="80" height="40" as="geometry" />
        </mxCell>
        <mxCell id="oY3v_DjK3-c_hyqQ0ho2-7" value="1" style="rounded=0;orthogonalLoop=1;jettySize=auto;html=1;endArrow=none;endFill=0;" edge="1" parent="1" source="jGeChQaiJxU1rHHrMRb0-61" target="oY3v_DjK3-c_hyqQ0ho2-6">
          <mxGeometry relative="1" as="geometry" />
        </mxCell>
        <mxCell id="YZ1ykrHCGAjDZOtgYVq--1" value="M" style="rounded=0;orthogonalLoop=1;jettySize=auto;html=1;endArrow=none;endFill=0;" edge="1" parent="1" source="jGeChQaiJxU1rHHrMRb0-61" target="oY3v_DjK3-c_hyqQ0ho2-4">
          <mxGeometry relative="1" as="geometry" />
        </mxCell>
        <mxCell id="uZtBNw2SRJ8BB9qcEygk-6" value="M" style="rounded=0;orthogonalLoop=1;jettySize=auto;html=1;endArrow=none;endFill=0;shape=link;" edge="1" parent="1" source="jGeChQaiJxU1rHHrMRb0-61" target="uZtBNw2SRJ8BB9qcEygk-5">
          <mxGeometry relative="1" as="geometry" />
        </mxCell>
        <mxCell id="jGeChQaiJxU1rHHrMRb0-61" value="Trabalhador" style="whiteSpace=wrap;html=1;align=center;fillColor=#d5e8d4;strokeColor=#82b366;" vertex="1" parent="1">
          <mxGeometry x="940" y="480" width="100" height="40" as="geometry" />
        </mxCell>
        <mxCell id="oY3v_DjK3-c_hyqQ0ho2-1" value="M" style="rounded=0;orthogonalLoop=1;jettySize=auto;html=1;endArrow=none;endFill=0;shape=link;elbow=vertical;" edge="1" parent="1" source="jGeChQaiJxU1rHHrMRb0-62" target="lc_g2-66o0Tn4OZxH__8-2">
          <mxGeometry relative="1" as="geometry" />
        </mxCell>
        <mxCell id="oY3v_DjK3-c_hyqQ0ho2-8" value="M" style="rounded=0;orthogonalLoop=1;jettySize=auto;html=1;endArrow=none;endFill=0;shape=link;" edge="1" parent="1" source="jGeChQaiJxU1rHHrMRb0-62" target="oY3v_DjK3-c_hyqQ0ho2-6">
          <mxGeometry relative="1" as="geometry" />
        </mxCell>
        <mxCell id="oY3v_DjK3-c_hyqQ0ho2-10" value="M" style="rounded=0;orthogonalLoop=1;jettySize=auto;html=1;endArrow=none;endFill=0;shape=link;" edge="1" parent="1" source="jGeChQaiJxU1rHHrMRb0-62" target="oY3v_DjK3-c_hyqQ0ho2-4">
          <mxGeometry relative="1" as="geometry" />
        </mxCell>
        <mxCell id="orbMVXnbXTKMvZdCZsPG-6" value="1" style="rounded=0;orthogonalLoop=1;jettySize=auto;html=1;endArrow=none;endFill=0;shape=link;" edge="1" parent="1" source="jGeChQaiJxU1rHHrMRb0-62" target="orbMVXnbXTKMvZdCZsPG-2">
          <mxGeometry relative="1" as="geometry" />
        </mxCell>
        <mxCell id="jX172beTPTU54Egbno3S-31" style="rounded=0;orthogonalLoop=1;jettySize=auto;html=1;endArrow=none;endFill=0;" edge="1" parent="1" source="jGeChQaiJxU1rHHrMRb0-62" target="jGeChQaiJxU1rHHrMRb0-65">
          <mxGeometry relative="1" as="geometry" />
        </mxCell>
        <mxCell id="jGeChQaiJxU1rHHrMRb0-62" value="Rota" style="whiteSpace=wrap;html=1;align=center;fillColor=#d5e8d4;strokeColor=#82b366;" vertex="1" parent="1">
          <mxGeometry x="1080" y="690" width="100" height="40" as="geometry" />
        </mxCell>
        <mxCell id="JVLDNi1INH0z-OVvVH8l-1" style="rounded=0;orthogonalLoop=1;jettySize=auto;html=1;endArrow=none;endFill=0;elbow=vertical;" edge="1" parent="1" source="jGeChQaiJxU1rHHrMRb0-63" target="lc_g2-66o0Tn4OZxH__8-2">
          <mxGeometry relative="1" as="geometry" />
        </mxCell>
        <mxCell id="oY3v_DjK3-c_hyqQ0ho2-2" value="1" style="edgeLabel;html=1;align=center;verticalAlign=middle;resizable=0;points=[];" vertex="1" connectable="0" parent="JVLDNi1INH0z-OVvVH8l-1">
          <mxGeometry x="0.1481" y="-2" relative="1" as="geometry">
            <mxPoint as="offset" />
          </mxGeometry>
        </mxCell>
        <mxCell id="uZtBNw2SRJ8BB9qcEygk-3" value="M" style="rounded=0;orthogonalLoop=1;jettySize=auto;html=1;endArrow=none;endFill=0;shape=link;" edge="1" parent="1" source="jGeChQaiJxU1rHHrMRb0-63" target="uZtBNw2SRJ8BB9qcEygk-2">
          <mxGeometry relative="1" as="geometry" />
        </mxCell>
        <mxCell id="2oqlJs1P7budn2HVeYFy-6" style="rounded=0;orthogonalLoop=1;jettySize=auto;html=1;endArrow=none;endFill=0;" edge="1" parent="1" source="jGeChQaiJxU1rHHrMRb0-63" target="jGeChQaiJxU1rHHrMRb0-68">
          <mxGeometry relative="1" as="geometry" />
        </mxCell>
        <mxCell id="2oqlJs1P7budn2HVeYFy-7" style="rounded=0;orthogonalLoop=1;jettySize=auto;html=1;endArrow=none;endFill=0;" edge="1" parent="1" source="jGeChQaiJxU1rHHrMRb0-63" target="jGeChQaiJxU1rHHrMRb0-67">
          <mxGeometry relative="1" as="geometry" />
        </mxCell>
        <mxCell id="jGeChQaiJxU1rHHrMRb0-63" value="Camião" style="whiteSpace=wrap;html=1;align=center;fillColor=#d5e8d4;strokeColor=#82b366;" vertex="1" parent="1">
          <mxGeometry x="940" y="600" width="100" height="40" as="geometry" />
        </mxCell>
        <mxCell id="Dahjdk3IA5JpOsfiKAcH-4" style="edgeStyle=orthogonalEdgeStyle;rounded=0;orthogonalLoop=1;jettySize=auto;html=1;endArrow=none;endFill=0;" edge="1" parent="1" source="wLQ0loJIeK5P3iTJJpUc-9" target="jGeChQaiJxU1rHHrMRb0-61">
          <mxGeometry relative="1" as="geometry">
            <Array as="points">
              <mxPoint x="990" y="390" />
            </Array>
          </mxGeometry>
        </mxCell>
        <mxCell id="wLQ0loJIeK5P3iTJJpUc-9" value="Idade" style="ellipse;whiteSpace=wrap;html=1;align=center;fontStyle=0;fillColor=#dae8fc;strokeColor=#6c8ebf;" vertex="1" parent="1">
          <mxGeometry x="900" y="370" width="80" height="40" as="geometry" />
        </mxCell>
        <mxCell id="Dahjdk3IA5JpOsfiKAcH-5" style="edgeStyle=orthogonalEdgeStyle;rounded=0;orthogonalLoop=1;jettySize=auto;html=1;endArrow=none;endFill=0;" edge="1" parent="1" source="wLQ0loJIeK5P3iTJJpUc-11" target="jGeChQaiJxU1rHHrMRb0-61">
          <mxGeometry relative="1" as="geometry">
            <Array as="points">
              <mxPoint x="990" y="390" />
            </Array>
          </mxGeometry>
        </mxCell>
        <mxCell id="wLQ0loJIeK5P3iTJJpUc-11" value="Email" style="ellipse;whiteSpace=wrap;html=1;align=center;fontStyle=0;fillColor=#dae8fc;strokeColor=#6c8ebf;" vertex="1" parent="1">
          <mxGeometry x="1000" y="370" width="80" height="40" as="geometry" />
        </mxCell>
        <mxCell id="Dahjdk3IA5JpOsfiKAcH-2" style="edgeStyle=orthogonalEdgeStyle;rounded=0;orthogonalLoop=1;jettySize=auto;html=1;endArrow=none;endFill=0;" edge="1" parent="1" source="wLQ0loJIeK5P3iTJJpUc-12" target="jGeChQaiJxU1rHHrMRb0-61">
          <mxGeometry relative="1" as="geometry">
            <Array as="points">
              <mxPoint x="990" y="440" />
            </Array>
          </mxGeometry>
        </mxCell>
        <mxCell id="wLQ0loJIeK5P3iTJJpUc-12" value="Função" style="ellipse;whiteSpace=wrap;html=1;align=center;fontStyle=0;fillColor=#dae8fc;strokeColor=#6c8ebf;" vertex="1" parent="1">
          <mxGeometry x="900" y="420" width="80" height="40" as="geometry" />
        </mxCell>
        <mxCell id="jX172beTPTU54Egbno3S-15" style="rounded=0;orthogonalLoop=1;jettySize=auto;html=1;endArrow=none;endFill=0;" edge="1" parent="1" source="jGeChQaiJxU1rHHrMRb0-60" target="jGeChQaiJxU1rHHrMRb0-54">
          <mxGeometry relative="1" as="geometry" />
        </mxCell>
        <mxCell id="jGeChQaiJxU1rHHrMRb0-60" value="Nome" style="ellipse;whiteSpace=wrap;html=1;align=center;fillColor=#dae8fc;strokeColor=#6c8ebf;" vertex="1" parent="1">
          <mxGeometry x="560" y="600" width="80" height="40" as="geometry" />
        </mxCell>
        <mxCell id="jGeChQaiJxU1rHHrMRb0-65" value="Propósito" style="ellipse;whiteSpace=wrap;html=1;align=center;fontStyle=0;fillColor=#dae8fc;strokeColor=#6c8ebf;" vertex="1" parent="1">
          <mxGeometry x="1200" y="690" width="80" height="40" as="geometry" />
        </mxCell>
        <mxCell id="jGeChQaiJxU1rHHrMRb0-67" value="&lt;div&gt;Qtd. Máx.&lt;/div&gt;&lt;div&gt;Paletes&lt;br&gt;&lt;/div&gt;" style="ellipse;whiteSpace=wrap;html=1;align=center;fontStyle=0;fillColor=#dae8fc;strokeColor=#6c8ebf;" vertex="1" parent="1">
          <mxGeometry x="995" y="540" width="80" height="40" as="geometry" />
        </mxCell>
        <mxCell id="lc_g2-66o0Tn4OZxH__8-2" value="Realiza" style="shape=rhombus;perimeter=rhombusPerimeter;whiteSpace=wrap;html=1;align=center;fillColor=#ffe6cc;strokeColor=#d79b00;" vertex="1" parent="1">
          <mxGeometry x="940" y="680" width="100" height="60" as="geometry" />
        </mxCell>
        <mxCell id="oY3v_DjK3-c_hyqQ0ho2-4" value="Planeia" style="shape=rhombus;perimeter=rhombusPerimeter;whiteSpace=wrap;html=1;align=center;fillColor=#ffe6cc;strokeColor=#d79b00;" vertex="1" parent="1">
          <mxGeometry x="1130" y="470" width="100" height="60" as="geometry" />
        </mxCell>
        <mxCell id="oY3v_DjK3-c_hyqQ0ho2-6" value="Conduz" style="shape=rhombus;perimeter=rhombusPerimeter;whiteSpace=wrap;html=1;align=center;fillColor=#ffe6cc;strokeColor=#d79b00;" vertex="1" parent="1">
          <mxGeometry x="1080" y="500" width="100" height="60" as="geometry" />
        </mxCell>
        <mxCell id="orbMVXnbXTKMvZdCZsPG-2" value="Transporta" style="shape=rhombus;perimeter=rhombusPerimeter;whiteSpace=wrap;html=1;align=center;fillColor=#ffe6cc;strokeColor=#d79b00;" vertex="1" parent="1">
          <mxGeometry x="940" y="770" width="100" height="60" as="geometry" />
        </mxCell>
        <mxCell id="uZtBNw2SRJ8BB9qcEygk-2" value="Pertence a" style="shape=rhombus;perimeter=rhombusPerimeter;whiteSpace=wrap;html=1;align=center;fillColor=#ffe6cc;strokeColor=#d79b00;" vertex="1" parent="1">
          <mxGeometry x="800" y="590" width="100" height="60" as="geometry" />
        </mxCell>
        <mxCell id="uZtBNw2SRJ8BB9qcEygk-5" value="Trabalha" style="shape=rhombus;perimeter=rhombusPerimeter;whiteSpace=wrap;html=1;align=center;fillColor=#ffe6cc;strokeColor=#d79b00;" vertex="1" parent="1">
          <mxGeometry x="660" y="470" width="100" height="60" as="geometry" />
        </mxCell>
        <mxCell id="hozf0g1_SjNWAToh8TMT-1" value="Armazena" style="shape=rhombus;perimeter=rhombusPerimeter;whiteSpace=wrap;html=1;align=center;fillColor=#ffe6cc;strokeColor=#d79b00;" vertex="1" parent="1">
          <mxGeometry x="660" y="680" width="100" height="60" as="geometry" />
        </mxCell>
        <mxCell id="FQ9VwnYZ1qEMQrRQ9DTU-1" value="Pertence a" style="shape=rhombus;perimeter=rhombusPerimeter;whiteSpace=wrap;html=1;align=center;fillColor=#ffe6cc;strokeColor=#d79b00;" vertex="1" parent="1">
          <mxGeometry x="660" y="860" width="100" height="60" as="geometry" />
        </mxCell>
        <mxCell id="N5KWp_KNqBfFTHxkn8w6-1" value="Remetente" style="shape=rhombus;perimeter=rhombusPerimeter;whiteSpace=wrap;html=1;align=center;fillColor=#ffe6cc;strokeColor=#d79b00;" vertex="1" parent="1">
          <mxGeometry x="920" y="890" width="100" height="60" as="geometry" />
        </mxCell>
        <mxCell id="7w9H1PydJlJrpcBqJE0R-5" value="1" style="rounded=0;orthogonalLoop=1;jettySize=auto;html=1;endArrow=none;endFill=0;" edge="1" parent="1" source="N5KWp_KNqBfFTHxkn8w6-2" target="jGeChQaiJxU1rHHrMRb0-46">
          <mxGeometry relative="1" as="geometry" />
        </mxCell>
        <mxCell id="N5KWp_KNqBfFTHxkn8w6-2" value="Destinatário" style="shape=rhombus;perimeter=rhombusPerimeter;whiteSpace=wrap;html=1;align=center;fillColor=#ffe6cc;strokeColor=#d79b00;" vertex="1" parent="1">
          <mxGeometry x="820" y="950" width="100" height="60" as="geometry" />
        </mxCell>
        <mxCell id="7w9H1PydJlJrpcBqJE0R-4" value="1" style="rounded=0;orthogonalLoop=1;jettySize=auto;html=1;endArrow=none;endFill=0;" edge="1" parent="1" source="jGeChQaiJxU1rHHrMRb0-46" target="7w9H1PydJlJrpcBqJE0R-1">
          <mxGeometry relative="1" as="geometry">
            <mxPoint x="1030" y="995.5" as="sourcePoint" />
            <mxPoint x="835" y="1009.5" as="targetPoint" />
          </mxGeometry>
        </mxCell>
        <mxCell id="7w9H1PydJlJrpcBqJE0R-1" value="Em espera" style="shape=rhombus;perimeter=rhombusPerimeter;whiteSpace=wrap;html=1;align=center;fillColor=#ffe6cc;strokeColor=#d79b00;" vertex="1" parent="1">
          <mxGeometry x="870" y="920" width="100" height="60" as="geometry" />
        </mxCell>
        <mxCell id="jGeChQaiJxU1rHHrMRb0-68" value="Temperatura" style="ellipse;whiteSpace=wrap;html=1;align=center;fontStyle=0;fillColor=#dae8fc;strokeColor=#6c8ebf;" vertex="1" parent="1">
          <mxGeometry x="905" y="540" width="80" height="40" as="geometry" />
        </mxCell>
        <mxCell id="Dahjdk3IA5JpOsfiKAcH-3" style="edgeStyle=orthogonalEdgeStyle;rounded=0;orthogonalLoop=1;jettySize=auto;html=1;endArrow=none;endFill=0;" edge="1" parent="1" source="Dahjdk3IA5JpOsfiKAcH-1" target="jGeChQaiJxU1rHHrMRb0-61">
          <mxGeometry relative="1" as="geometry">
            <Array as="points">
              <mxPoint x="990" y="440" />
            </Array>
          </mxGeometry>
        </mxCell>
        <mxCell id="Dahjdk3IA5JpOsfiKAcH-1" value="Função" style="ellipse;whiteSpace=wrap;html=1;align=center;fontStyle=0;fillColor=#dae8fc;strokeColor=#6c8ebf;" vertex="1" parent="1">
          <mxGeometry x="1000" y="420" width="80" height="40" as="geometry" />
        </mxCell>
      </root>
    </mxGraphModel>
  </diagram>
  <diagram id="kz0OLEOqYNKb_Vykh4H9" name="Diagrama ER (Crow&#39;s Foot)">
    <mxGraphModel grid="1" page="0" gridSize="10" guides="1" tooltips="1" connect="1" arrows="1" fold="1" pageScale="1" pageWidth="850" pageHeight="1100" math="0" shadow="0">
      <root>
        <mxCell id="0" />
        <mxCell id="1" parent="0" />
        <mxCell id="ddXRot8dKywskyrU_UQT-16" value="armazens" style="shape=table;startSize=30;container=1;collapsible=1;childLayout=tableLayout;fixedRows=1;rowLines=0;fontStyle=1;align=center;resizeLast=1;html=1;fillColor=#dae8fc;strokeColor=#6c8ebf;" vertex="1" parent="1">
          <mxGeometry x="-120" y="240" width="240" height="90" as="geometry" />
        </mxCell>
        <mxCell id="ddXRot8dKywskyrU_UQT-32" style="shape=tableRow;horizontal=0;startSize=0;swimlaneHead=0;swimlaneBody=0;fillColor=none;collapsible=0;dropTarget=0;points=[[0,0.5],[1,0.5]];portConstraint=eastwest;top=0;left=0;right=0;bottom=1;fontStyle=0" vertex="1" parent="ddXRot8dKywskyrU_UQT-16">
          <mxGeometry y="30" width="240" height="30" as="geometry" />
        </mxCell>
        <mxCell id="ddXRot8dKywskyrU_UQT-33" value="PK" style="shape=partialRectangle;connectable=0;fillColor=none;top=0;left=0;bottom=0;right=0;fontStyle=1;overflow=hidden;whiteSpace=wrap;html=1;" vertex="1" parent="ddXRot8dKywskyrU_UQT-32">
          <mxGeometry width="30" height="30" as="geometry">
            <mxRectangle width="30" height="30" as="alternateBounds" />
          </mxGeometry>
        </mxCell>
        <mxCell id="ddXRot8dKywskyrU_UQT-34" value="id_armazem" style="shape=partialRectangle;connectable=0;fillColor=none;top=0;left=0;bottom=0;right=0;align=left;spacingLeft=6;fontStyle=1;overflow=hidden;whiteSpace=wrap;html=1;" vertex="1" parent="ddXRot8dKywskyrU_UQT-32">
          <mxGeometry x="30" width="110" height="30" as="geometry">
            <mxRectangle width="110" height="30" as="alternateBounds" />
          </mxGeometry>
        </mxCell>
        <mxCell id="5Mz48zJREzQgN63VaIgx-1" value="INT" style="shape=partialRectangle;connectable=0;fillColor=none;top=0;left=0;bottom=0;right=0;align=left;spacingLeft=6;fontStyle=1;overflow=hidden;whiteSpace=wrap;html=1;" vertex="1" parent="ddXRot8dKywskyrU_UQT-32">
          <mxGeometry x="140" width="100" height="30" as="geometry">
            <mxRectangle width="100" height="30" as="alternateBounds" />
          </mxGeometry>
        </mxCell>
        <mxCell id="TJUkrI_AIj82atkH7xTK-1" style="shape=tableRow;horizontal=0;startSize=0;swimlaneHead=0;swimlaneBody=0;fillColor=none;collapsible=0;dropTarget=0;points=[[0,0.5],[1,0.5]];portConstraint=eastwest;top=0;left=0;right=0;bottom=1;fontStyle=0" vertex="1" parent="ddXRot8dKywskyrU_UQT-16">
          <mxGeometry y="60" width="240" height="30" as="geometry" />
        </mxCell>
        <mxCell id="TJUkrI_AIj82atkH7xTK-2" style="shape=partialRectangle;connectable=0;fillColor=none;top=0;left=0;bottom=0;right=0;fontStyle=1;overflow=hidden;whiteSpace=wrap;html=1;" vertex="1" parent="TJUkrI_AIj82atkH7xTK-1">
          <mxGeometry width="30" height="30" as="geometry">
            <mxRectangle width="30" height="30" as="alternateBounds" />
          </mxGeometry>
        </mxCell>
        <mxCell id="TJUkrI_AIj82atkH7xTK-3" value="nome" style="shape=partialRectangle;connectable=0;fillColor=none;top=0;left=0;bottom=0;right=0;align=left;spacingLeft=6;fontStyle=1;overflow=hidden;whiteSpace=wrap;html=1;" vertex="1" parent="TJUkrI_AIj82atkH7xTK-1">
          <mxGeometry x="30" width="110" height="30" as="geometry">
            <mxRectangle width="110" height="30" as="alternateBounds" />
          </mxGeometry>
        </mxCell>
        <mxCell id="TJUkrI_AIj82atkH7xTK-4" value="VARCHAR" style="shape=partialRectangle;connectable=0;fillColor=none;top=0;left=0;bottom=0;right=0;align=left;spacingLeft=6;fontStyle=1;overflow=hidden;whiteSpace=wrap;html=1;" vertex="1" parent="TJUkrI_AIj82atkH7xTK-1">
          <mxGeometry x="140" width="100" height="30" as="geometry">
            <mxRectangle width="100" height="30" as="alternateBounds" />
          </mxGeometry>
        </mxCell>
        <mxCell id="TJUkrI_AIj82atkH7xTK-18" value="pedidos" style="shape=table;startSize=30;container=1;collapsible=1;childLayout=tableLayout;fixedRows=1;rowLines=0;fontStyle=1;align=center;resizeLast=1;html=1;fillColor=#dae8fc;strokeColor=#6c8ebf;" vertex="1" parent="1">
          <mxGeometry x="-760" y="370" width="240" height="180" as="geometry" />
        </mxCell>
        <mxCell id="TJUkrI_AIj82atkH7xTK-19" style="shape=tableRow;horizontal=0;startSize=0;swimlaneHead=0;swimlaneBody=0;fillColor=none;collapsible=0;dropTarget=0;points=[[0,0.5],[1,0.5]];portConstraint=eastwest;top=0;left=0;right=0;bottom=1;fontStyle=0" vertex="1" parent="TJUkrI_AIj82atkH7xTK-18">
          <mxGeometry y="30" width="240" height="30" as="geometry" />
        </mxCell>
        <mxCell id="TJUkrI_AIj82atkH7xTK-20" value="PK" style="shape=partialRectangle;connectable=0;fillColor=none;top=0;left=0;bottom=0;right=0;fontStyle=1;overflow=hidden;whiteSpace=wrap;html=1;" vertex="1" parent="TJUkrI_AIj82atkH7xTK-19">
          <mxGeometry width="30" height="30" as="geometry">
            <mxRectangle width="30" height="30" as="alternateBounds" />
          </mxGeometry>
        </mxCell>
        <mxCell id="TJUkrI_AIj82atkH7xTK-21" value="id_pedido" style="shape=partialRectangle;connectable=0;fillColor=none;top=0;left=0;bottom=0;right=0;align=left;spacingLeft=6;fontStyle=1;overflow=hidden;whiteSpace=wrap;html=1;" vertex="1" parent="TJUkrI_AIj82atkH7xTK-19">
          <mxGeometry x="30" width="160" height="30" as="geometry">
            <mxRectangle width="160" height="30" as="alternateBounds" />
          </mxGeometry>
        </mxCell>
        <mxCell id="TJUkrI_AIj82atkH7xTK-22" value="INT" style="shape=partialRectangle;connectable=0;fillColor=none;top=0;left=0;bottom=0;right=0;align=left;spacingLeft=6;fontStyle=1;overflow=hidden;whiteSpace=wrap;html=1;" vertex="1" parent="TJUkrI_AIj82atkH7xTK-19">
          <mxGeometry x="190" width="50" height="30" as="geometry">
            <mxRectangle width="50" height="30" as="alternateBounds" />
          </mxGeometry>
        </mxCell>
        <mxCell id="TJUkrI_AIj82atkH7xTK-23" style="shape=tableRow;horizontal=0;startSize=0;swimlaneHead=0;swimlaneBody=0;fillColor=none;collapsible=0;dropTarget=0;points=[[0,0.5],[1,0.5]];portConstraint=eastwest;top=0;left=0;right=0;bottom=1;fontStyle=0" vertex="1" parent="TJUkrI_AIj82atkH7xTK-18">
          <mxGeometry y="60" width="240" height="30" as="geometry" />
        </mxCell>
        <mxCell id="TJUkrI_AIj82atkH7xTK-24" value="FK" style="shape=partialRectangle;connectable=0;fillColor=none;top=0;left=0;bottom=0;right=0;fontStyle=1;overflow=hidden;whiteSpace=wrap;html=1;" vertex="1" parent="TJUkrI_AIj82atkH7xTK-23">
          <mxGeometry width="30" height="30" as="geometry">
            <mxRectangle width="30" height="30" as="alternateBounds" />
          </mxGeometry>
        </mxCell>
        <mxCell id="TJUkrI_AIj82atkH7xTK-25" value="id_remetente" style="shape=partialRectangle;connectable=0;fillColor=none;top=0;left=0;bottom=0;right=0;align=left;spacingLeft=6;fontStyle=1;overflow=hidden;whiteSpace=wrap;html=1;" vertex="1" parent="TJUkrI_AIj82atkH7xTK-23">
          <mxGeometry x="30" width="160" height="30" as="geometry">
            <mxRectangle width="160" height="30" as="alternateBounds" />
          </mxGeometry>
        </mxCell>
        <mxCell id="TJUkrI_AIj82atkH7xTK-26" value="INT" style="shape=partialRectangle;connectable=0;fillColor=none;top=0;left=0;bottom=0;right=0;align=left;spacingLeft=6;fontStyle=1;overflow=hidden;whiteSpace=wrap;html=1;" vertex="1" parent="TJUkrI_AIj82atkH7xTK-23">
          <mxGeometry x="190" width="50" height="30" as="geometry">
            <mxRectangle width="50" height="30" as="alternateBounds" />
          </mxGeometry>
        </mxCell>
        <mxCell id="TJUkrI_AIj82atkH7xTK-27" style="shape=tableRow;horizontal=0;startSize=0;swimlaneHead=0;swimlaneBody=0;fillColor=none;collapsible=0;dropTarget=0;points=[[0,0.5],[1,0.5]];portConstraint=eastwest;top=0;left=0;right=0;bottom=1;fontStyle=0" vertex="1" parent="TJUkrI_AIj82atkH7xTK-18">
          <mxGeometry y="90" width="240" height="30" as="geometry" />
        </mxCell>
        <mxCell id="TJUkrI_AIj82atkH7xTK-28" value="FK" style="shape=partialRectangle;connectable=0;fillColor=none;top=0;left=0;bottom=0;right=0;fontStyle=1;overflow=hidden;whiteSpace=wrap;html=1;" vertex="1" parent="TJUkrI_AIj82atkH7xTK-27">
          <mxGeometry width="30" height="30" as="geometry">
            <mxRectangle width="30" height="30" as="alternateBounds" />
          </mxGeometry>
        </mxCell>
        <mxCell id="TJUkrI_AIj82atkH7xTK-29" value="id_destinatario" style="shape=partialRectangle;connectable=0;fillColor=none;top=0;left=0;bottom=0;right=0;align=left;spacingLeft=6;fontStyle=1;overflow=hidden;whiteSpace=wrap;html=1;" vertex="1" parent="TJUkrI_AIj82atkH7xTK-27">
          <mxGeometry x="30" width="160" height="30" as="geometry">
            <mxRectangle width="160" height="30" as="alternateBounds" />
          </mxGeometry>
        </mxCell>
        <mxCell id="TJUkrI_AIj82atkH7xTK-30" value="INT" style="shape=partialRectangle;connectable=0;fillColor=none;top=0;left=0;bottom=0;right=0;align=left;spacingLeft=6;fontStyle=1;overflow=hidden;whiteSpace=wrap;html=1;" vertex="1" parent="TJUkrI_AIj82atkH7xTK-27">
          <mxGeometry x="190" width="50" height="30" as="geometry">
            <mxRectangle width="50" height="30" as="alternateBounds" />
          </mxGeometry>
        </mxCell>
        <mxCell id="TJUkrI_AIj82atkH7xTK-35" style="shape=tableRow;horizontal=0;startSize=0;swimlaneHead=0;swimlaneBody=0;fillColor=none;collapsible=0;dropTarget=0;points=[[0,0.5],[1,0.5]];portConstraint=eastwest;top=0;left=0;right=0;bottom=1;fontStyle=0" vertex="1" parent="TJUkrI_AIj82atkH7xTK-18">
          <mxGeometry y="120" width="240" height="30" as="geometry" />
        </mxCell>
        <mxCell id="TJUkrI_AIj82atkH7xTK-36" value="" style="shape=partialRectangle;connectable=0;fillColor=none;top=0;left=0;bottom=0;right=0;fontStyle=1;overflow=hidden;whiteSpace=wrap;html=1;" vertex="1" parent="TJUkrI_AIj82atkH7xTK-35">
          <mxGeometry width="30" height="30" as="geometry">
            <mxRectangle width="30" height="30" as="alternateBounds" />
          </mxGeometry>
        </mxCell>
        <mxCell id="TJUkrI_AIj82atkH7xTK-37" value="data_envio" style="shape=partialRectangle;connectable=0;fillColor=none;top=0;left=0;bottom=0;right=0;align=left;spacingLeft=6;fontStyle=1;overflow=hidden;whiteSpace=wrap;html=1;" vertex="1" parent="TJUkrI_AIj82atkH7xTK-35">
          <mxGeometry x="30" width="160" height="30" as="geometry">
            <mxRectangle width="160" height="30" as="alternateBounds" />
          </mxGeometry>
        </mxCell>
        <mxCell id="TJUkrI_AIj82atkH7xTK-38" value="DATE" style="shape=partialRectangle;connectable=0;fillColor=none;top=0;left=0;bottom=0;right=0;align=left;spacingLeft=6;fontStyle=1;overflow=hidden;whiteSpace=wrap;html=1;" vertex="1" parent="TJUkrI_AIj82atkH7xTK-35">
          <mxGeometry x="190" width="50" height="30" as="geometry">
            <mxRectangle width="50" height="30" as="alternateBounds" />
          </mxGeometry>
        </mxCell>
        <mxCell id="TJUkrI_AIj82atkH7xTK-43" style="shape=tableRow;horizontal=0;startSize=0;swimlaneHead=0;swimlaneBody=0;fillColor=none;collapsible=0;dropTarget=0;points=[[0,0.5],[1,0.5]];portConstraint=eastwest;top=0;left=0;right=0;bottom=1;fontStyle=0" vertex="1" parent="TJUkrI_AIj82atkH7xTK-18">
          <mxGeometry y="150" width="240" height="30" as="geometry" />
        </mxCell>
        <mxCell id="TJUkrI_AIj82atkH7xTK-44" style="shape=partialRectangle;connectable=0;fillColor=none;top=0;left=0;bottom=0;right=0;fontStyle=1;overflow=hidden;whiteSpace=wrap;html=1;" vertex="1" parent="TJUkrI_AIj82atkH7xTK-43">
          <mxGeometry width="30" height="30" as="geometry">
            <mxRectangle width="30" height="30" as="alternateBounds" />
          </mxGeometry>
        </mxCell>
        <mxCell id="TJUkrI_AIj82atkH7xTK-45" value="data_entrega" style="shape=partialRectangle;connectable=0;fillColor=none;top=0;left=0;bottom=0;right=0;align=left;spacingLeft=6;fontStyle=1;overflow=hidden;whiteSpace=wrap;html=1;" vertex="1" parent="TJUkrI_AIj82atkH7xTK-43">
          <mxGeometry x="30" width="160" height="30" as="geometry">
            <mxRectangle width="160" height="30" as="alternateBounds" />
          </mxGeometry>
        </mxCell>
        <mxCell id="TJUkrI_AIj82atkH7xTK-46" value="DATE" style="shape=partialRectangle;connectable=0;fillColor=none;top=0;left=0;bottom=0;right=0;align=left;spacingLeft=6;fontStyle=1;overflow=hidden;whiteSpace=wrap;html=1;" vertex="1" parent="TJUkrI_AIj82atkH7xTK-43">
          <mxGeometry x="190" width="50" height="30" as="geometry">
            <mxRectangle width="50" height="30" as="alternateBounds" />
          </mxGeometry>
        </mxCell>
        <mxCell id="TJUkrI_AIj82atkH7xTK-72" value="paletes" style="shape=table;startSize=30;container=1;collapsible=1;childLayout=tableLayout;fixedRows=1;rowLines=0;fontStyle=1;align=center;resizeLast=1;html=1;fillColor=#dae8fc;strokeColor=#6c8ebf;" vertex="1" parent="1">
          <mxGeometry x="-1080" y="460" width="240" height="150" as="geometry" />
        </mxCell>
        <mxCell id="TJUkrI_AIj82atkH7xTK-73" style="shape=tableRow;horizontal=0;startSize=0;swimlaneHead=0;swimlaneBody=0;fillColor=none;collapsible=0;dropTarget=0;points=[[0,0.5],[1,0.5]];portConstraint=eastwest;top=0;left=0;right=0;bottom=1;fontStyle=0" vertex="1" parent="TJUkrI_AIj82atkH7xTK-72">
          <mxGeometry y="30" width="240" height="30" as="geometry" />
        </mxCell>
        <mxCell id="TJUkrI_AIj82atkH7xTK-74" value="PK" style="shape=partialRectangle;connectable=0;fillColor=none;top=0;left=0;bottom=0;right=0;fontStyle=1;overflow=hidden;whiteSpace=wrap;html=1;" vertex="1" parent="TJUkrI_AIj82atkH7xTK-73">
          <mxGeometry width="30" height="30" as="geometry">
            <mxRectangle width="30" height="30" as="alternateBounds" />
          </mxGeometry>
        </mxCell>
        <mxCell id="TJUkrI_AIj82atkH7xTK-75" value="id_palete" style="shape=partialRectangle;connectable=0;fillColor=none;top=0;left=0;bottom=0;right=0;align=left;spacingLeft=6;fontStyle=1;overflow=hidden;whiteSpace=wrap;html=1;" vertex="1" parent="TJUkrI_AIj82atkH7xTK-73">
          <mxGeometry x="30" width="110" height="30" as="geometry">
            <mxRectangle width="110" height="30" as="alternateBounds" />
          </mxGeometry>
        </mxCell>
        <mxCell id="TJUkrI_AIj82atkH7xTK-76" value="INT" style="shape=partialRectangle;connectable=0;fillColor=none;top=0;left=0;bottom=0;right=0;align=left;spacingLeft=6;fontStyle=1;overflow=hidden;whiteSpace=wrap;html=1;" vertex="1" parent="TJUkrI_AIj82atkH7xTK-73">
          <mxGeometry x="140" width="100" height="30" as="geometry">
            <mxRectangle width="100" height="30" as="alternateBounds" />
          </mxGeometry>
        </mxCell>
        <mxCell id="TJUkrI_AIj82atkH7xTK-77" style="shape=tableRow;horizontal=0;startSize=0;swimlaneHead=0;swimlaneBody=0;fillColor=none;collapsible=0;dropTarget=0;points=[[0,0.5],[1,0.5]];portConstraint=eastwest;top=0;left=0;right=0;bottom=1;fontStyle=0" vertex="1" parent="TJUkrI_AIj82atkH7xTK-72">
          <mxGeometry y="60" width="240" height="30" as="geometry" />
        </mxCell>
        <mxCell id="TJUkrI_AIj82atkH7xTK-78" value="" style="shape=partialRectangle;connectable=0;fillColor=none;top=0;left=0;bottom=0;right=0;fontStyle=1;overflow=hidden;whiteSpace=wrap;html=1;" vertex="1" parent="TJUkrI_AIj82atkH7xTK-77">
          <mxGeometry width="30" height="30" as="geometry">
            <mxRectangle width="30" height="30" as="alternateBounds" />
          </mxGeometry>
        </mxCell>
        <mxCell id="TJUkrI_AIj82atkH7xTK-79" value="peso" style="shape=partialRectangle;connectable=0;fillColor=none;top=0;left=0;bottom=0;right=0;align=left;spacingLeft=6;fontStyle=1;overflow=hidden;whiteSpace=wrap;html=1;" vertex="1" parent="TJUkrI_AIj82atkH7xTK-77">
          <mxGeometry x="30" width="110" height="30" as="geometry">
            <mxRectangle width="110" height="30" as="alternateBounds" />
          </mxGeometry>
        </mxCell>
        <mxCell id="TJUkrI_AIj82atkH7xTK-80" value="DECIMAL" style="shape=partialRectangle;connectable=0;fillColor=none;top=0;left=0;bottom=0;right=0;align=left;spacingLeft=6;fontStyle=1;overflow=hidden;whiteSpace=wrap;html=1;" vertex="1" parent="TJUkrI_AIj82atkH7xTK-77">
          <mxGeometry x="140" width="100" height="30" as="geometry">
            <mxRectangle width="100" height="30" as="alternateBounds" />
          </mxGeometry>
        </mxCell>
        <mxCell id="TJUkrI_AIj82atkH7xTK-81" style="shape=tableRow;horizontal=0;startSize=0;swimlaneHead=0;swimlaneBody=0;fillColor=none;collapsible=0;dropTarget=0;points=[[0,0.5],[1,0.5]];portConstraint=eastwest;top=0;left=0;right=0;bottom=1;fontStyle=0" vertex="1" parent="TJUkrI_AIj82atkH7xTK-72">
          <mxGeometry y="90" width="240" height="30" as="geometry" />
        </mxCell>
        <mxCell id="TJUkrI_AIj82atkH7xTK-82" value="" style="shape=partialRectangle;connectable=0;fillColor=none;top=0;left=0;bottom=0;right=0;fontStyle=1;overflow=hidden;whiteSpace=wrap;html=1;" vertex="1" parent="TJUkrI_AIj82atkH7xTK-81">
          <mxGeometry width="30" height="30" as="geometry">
            <mxRectangle width="30" height="30" as="alternateBounds" />
          </mxGeometry>
        </mxCell>
        <mxCell id="TJUkrI_AIj82atkH7xTK-83" value="temperatura" style="shape=partialRectangle;connectable=0;fillColor=none;top=0;left=0;bottom=0;right=0;align=left;spacingLeft=6;fontStyle=1;overflow=hidden;whiteSpace=wrap;html=1;" vertex="1" parent="TJUkrI_AIj82atkH7xTK-81">
          <mxGeometry x="30" width="110" height="30" as="geometry">
            <mxRectangle width="110" height="30" as="alternateBounds" />
          </mxGeometry>
        </mxCell>
        <mxCell id="TJUkrI_AIj82atkH7xTK-84" value="DECIMAL" style="shape=partialRectangle;connectable=0;fillColor=none;top=0;left=0;bottom=0;right=0;align=left;spacingLeft=6;fontStyle=1;overflow=hidden;whiteSpace=wrap;html=1;" vertex="1" parent="TJUkrI_AIj82atkH7xTK-81">
          <mxGeometry x="140" width="100" height="30" as="geometry">
            <mxRectangle width="100" height="30" as="alternateBounds" />
          </mxGeometry>
        </mxCell>
        <mxCell id="L_5fZjpmQTclOnn-BZu5-2" style="shape=tableRow;horizontal=0;startSize=0;swimlaneHead=0;swimlaneBody=0;fillColor=none;collapsible=0;dropTarget=0;points=[[0,0.5],[1,0.5]];portConstraint=eastwest;top=0;left=0;right=0;bottom=1;fontStyle=0" vertex="1" parent="TJUkrI_AIj82atkH7xTK-72">
          <mxGeometry y="120" width="240" height="30" as="geometry" />
        </mxCell>
        <mxCell id="L_5fZjpmQTclOnn-BZu5-3" value="FK" style="shape=partialRectangle;connectable=0;fillColor=none;top=0;left=0;bottom=0;right=0;fontStyle=1;overflow=hidden;whiteSpace=wrap;html=1;" vertex="1" parent="L_5fZjpmQTclOnn-BZu5-2">
          <mxGeometry width="30" height="30" as="geometry">
            <mxRectangle width="30" height="30" as="alternateBounds" />
          </mxGeometry>
        </mxCell>
        <mxCell id="L_5fZjpmQTclOnn-BZu5-4" value="id_pedido" style="shape=partialRectangle;connectable=0;fillColor=none;top=0;left=0;bottom=0;right=0;align=left;spacingLeft=6;fontStyle=1;overflow=hidden;whiteSpace=wrap;html=1;" vertex="1" parent="L_5fZjpmQTclOnn-BZu5-2">
          <mxGeometry x="30" width="110" height="30" as="geometry">
            <mxRectangle width="110" height="30" as="alternateBounds" />
          </mxGeometry>
        </mxCell>
        <mxCell id="L_5fZjpmQTclOnn-BZu5-5" value="INT" style="shape=partialRectangle;connectable=0;fillColor=none;top=0;left=0;bottom=0;right=0;align=left;spacingLeft=6;fontStyle=1;overflow=hidden;whiteSpace=wrap;html=1;" vertex="1" parent="L_5fZjpmQTclOnn-BZu5-2">
          <mxGeometry x="140" width="100" height="30" as="geometry">
            <mxRectangle width="100" height="30" as="alternateBounds" />
          </mxGeometry>
        </mxCell>
        <mxCell id="TJUkrI_AIj82atkH7xTK-122" value="trabalhadores" style="shape=table;startSize=30;container=1;collapsible=1;childLayout=tableLayout;fixedRows=1;rowLines=0;fontStyle=1;align=center;resizeLast=1;html=1;fillColor=#dae8fc;strokeColor=#6c8ebf;" vertex="1" parent="1">
          <mxGeometry x="-120" y="370" width="240.00000000000023" height="240" as="geometry" />
        </mxCell>
        <mxCell id="TJUkrI_AIj82atkH7xTK-123" style="shape=tableRow;horizontal=0;startSize=0;swimlaneHead=0;swimlaneBody=0;fillColor=none;collapsible=0;dropTarget=0;points=[[0,0.5],[1,0.5]];portConstraint=eastwest;top=0;left=0;right=0;bottom=1;fontStyle=0" vertex="1" parent="TJUkrI_AIj82atkH7xTK-122">
          <mxGeometry y="30" width="240.00000000000023" height="30" as="geometry" />
        </mxCell>
        <mxCell id="TJUkrI_AIj82atkH7xTK-124" value="PK" style="shape=partialRectangle;connectable=0;fillColor=none;top=0;left=0;bottom=0;right=0;fontStyle=1;overflow=hidden;whiteSpace=wrap;html=1;" vertex="1" parent="TJUkrI_AIj82atkH7xTK-123">
          <mxGeometry width="30" height="30" as="geometry">
            <mxRectangle width="30" height="30" as="alternateBounds" />
          </mxGeometry>
        </mxCell>
        <mxCell id="TJUkrI_AIj82atkH7xTK-125" value="id_trabalhador" style="shape=partialRectangle;connectable=0;fillColor=none;top=0;left=0;bottom=0;right=0;align=left;spacingLeft=6;fontStyle=1;overflow=hidden;whiteSpace=wrap;html=1;" vertex="1" parent="TJUkrI_AIj82atkH7xTK-123">
          <mxGeometry x="30" width="110" height="30" as="geometry">
            <mxRectangle width="110" height="30" as="alternateBounds" />
          </mxGeometry>
        </mxCell>
        <mxCell id="TJUkrI_AIj82atkH7xTK-126" value="INT" style="shape=partialRectangle;connectable=0;fillColor=none;top=0;left=0;bottom=0;right=0;align=left;spacingLeft=6;fontStyle=1;overflow=hidden;whiteSpace=wrap;html=1;" vertex="1" parent="TJUkrI_AIj82atkH7xTK-123">
          <mxGeometry x="140" width="100.00000000000023" height="30" as="geometry">
            <mxRectangle width="100.00000000000023" height="30" as="alternateBounds" />
          </mxGeometry>
        </mxCell>
        <mxCell id="TJUkrI_AIj82atkH7xTK-127" style="shape=tableRow;horizontal=0;startSize=0;swimlaneHead=0;swimlaneBody=0;fillColor=none;collapsible=0;dropTarget=0;points=[[0,0.5],[1,0.5]];portConstraint=eastwest;top=0;left=0;right=0;bottom=1;fontStyle=0" vertex="1" parent="TJUkrI_AIj82atkH7xTK-122">
          <mxGeometry y="60" width="240.00000000000023" height="30" as="geometry" />
        </mxCell>
        <mxCell id="TJUkrI_AIj82atkH7xTK-128" value="" style="shape=partialRectangle;connectable=0;fillColor=none;top=0;left=0;bottom=0;right=0;fontStyle=1;overflow=hidden;whiteSpace=wrap;html=1;" vertex="1" parent="TJUkrI_AIj82atkH7xTK-127">
          <mxGeometry width="30" height="30" as="geometry">
            <mxRectangle width="30" height="30" as="alternateBounds" />
          </mxGeometry>
        </mxCell>
        <mxCell id="TJUkrI_AIj82atkH7xTK-129" value="nome" style="shape=partialRectangle;connectable=0;fillColor=none;top=0;left=0;bottom=0;right=0;align=left;spacingLeft=6;fontStyle=1;overflow=hidden;whiteSpace=wrap;html=1;" vertex="1" parent="TJUkrI_AIj82atkH7xTK-127">
          <mxGeometry x="30" width="110" height="30" as="geometry">
            <mxRectangle width="110" height="30" as="alternateBounds" />
          </mxGeometry>
        </mxCell>
        <mxCell id="TJUkrI_AIj82atkH7xTK-130" value="VARCHAR" style="shape=partialRectangle;connectable=0;fillColor=none;top=0;left=0;bottom=0;right=0;align=left;spacingLeft=6;fontStyle=1;overflow=hidden;whiteSpace=wrap;html=1;" vertex="1" parent="TJUkrI_AIj82atkH7xTK-127">
          <mxGeometry x="140" width="100.00000000000023" height="30" as="geometry">
            <mxRectangle width="100.00000000000023" height="30" as="alternateBounds" />
          </mxGeometry>
        </mxCell>
        <mxCell id="TJUkrI_AIj82atkH7xTK-131" style="shape=tableRow;horizontal=0;startSize=0;swimlaneHead=0;swimlaneBody=0;fillColor=none;collapsible=0;dropTarget=0;points=[[0,0.5],[1,0.5]];portConstraint=eastwest;top=0;left=0;right=0;bottom=1;fontStyle=0" vertex="1" parent="TJUkrI_AIj82atkH7xTK-122">
          <mxGeometry y="90" width="240.00000000000023" height="30" as="geometry" />
        </mxCell>
        <mxCell id="TJUkrI_AIj82atkH7xTK-132" value="" style="shape=partialRectangle;connectable=0;fillColor=none;top=0;left=0;bottom=0;right=0;fontStyle=1;overflow=hidden;whiteSpace=wrap;html=1;" vertex="1" parent="TJUkrI_AIj82atkH7xTK-131">
          <mxGeometry width="30" height="30" as="geometry">
            <mxRectangle width="30" height="30" as="alternateBounds" />
          </mxGeometry>
        </mxCell>
        <mxCell id="TJUkrI_AIj82atkH7xTK-133" value="idade" style="shape=partialRectangle;connectable=0;fillColor=none;top=0;left=0;bottom=0;right=0;align=left;spacingLeft=6;fontStyle=1;overflow=hidden;whiteSpace=wrap;html=1;" vertex="1" parent="TJUkrI_AIj82atkH7xTK-131">
          <mxGeometry x="30" width="110" height="30" as="geometry">
            <mxRectangle width="110" height="30" as="alternateBounds" />
          </mxGeometry>
        </mxCell>
        <mxCell id="TJUkrI_AIj82atkH7xTK-134" value="INT" style="shape=partialRectangle;connectable=0;fillColor=none;top=0;left=0;bottom=0;right=0;align=left;spacingLeft=6;fontStyle=1;overflow=hidden;whiteSpace=wrap;html=1;" vertex="1" parent="TJUkrI_AIj82atkH7xTK-131">
          <mxGeometry x="140" width="100.00000000000023" height="30" as="geometry">
            <mxRectangle width="100.00000000000023" height="30" as="alternateBounds" />
          </mxGeometry>
        </mxCell>
        <mxCell id="TJUkrI_AIj82atkH7xTK-135" style="shape=tableRow;horizontal=0;startSize=0;swimlaneHead=0;swimlaneBody=0;fillColor=none;collapsible=0;dropTarget=0;points=[[0,0.5],[1,0.5]];portConstraint=eastwest;top=0;left=0;right=0;bottom=1;fontStyle=0" vertex="1" parent="TJUkrI_AIj82atkH7xTK-122">
          <mxGeometry y="120" width="240.00000000000023" height="30" as="geometry" />
        </mxCell>
        <mxCell id="TJUkrI_AIj82atkH7xTK-136" value="" style="shape=partialRectangle;connectable=0;fillColor=none;top=0;left=0;bottom=0;right=0;fontStyle=1;overflow=hidden;whiteSpace=wrap;html=1;" vertex="1" parent="TJUkrI_AIj82atkH7xTK-135">
          <mxGeometry width="30" height="30" as="geometry">
            <mxRectangle width="30" height="30" as="alternateBounds" />
          </mxGeometry>
        </mxCell>
        <mxCell id="TJUkrI_AIj82atkH7xTK-137" value="morada" style="shape=partialRectangle;connectable=0;fillColor=none;top=0;left=0;bottom=0;right=0;align=left;spacingLeft=6;fontStyle=1;overflow=hidden;whiteSpace=wrap;html=1;" vertex="1" parent="TJUkrI_AIj82atkH7xTK-135">
          <mxGeometry x="30" width="110" height="30" as="geometry">
            <mxRectangle width="110" height="30" as="alternateBounds" />
          </mxGeometry>
        </mxCell>
        <mxCell id="TJUkrI_AIj82atkH7xTK-138" value="VARCHAR" style="shape=partialRectangle;connectable=0;fillColor=none;top=0;left=0;bottom=0;right=0;align=left;spacingLeft=6;fontStyle=1;overflow=hidden;whiteSpace=wrap;html=1;" vertex="1" parent="TJUkrI_AIj82atkH7xTK-135">
          <mxGeometry x="140" width="100.00000000000023" height="30" as="geometry">
            <mxRectangle width="100.00000000000023" height="30" as="alternateBounds" />
          </mxGeometry>
        </mxCell>
        <mxCell id="TJUkrI_AIj82atkH7xTK-139" style="shape=tableRow;horizontal=0;startSize=0;swimlaneHead=0;swimlaneBody=0;fillColor=none;collapsible=0;dropTarget=0;points=[[0,0.5],[1,0.5]];portConstraint=eastwest;top=0;left=0;right=0;bottom=1;fontStyle=0" vertex="1" parent="TJUkrI_AIj82atkH7xTK-122">
          <mxGeometry y="150" width="240.00000000000023" height="30" as="geometry" />
        </mxCell>
        <mxCell id="TJUkrI_AIj82atkH7xTK-140" value="" style="shape=partialRectangle;connectable=0;fillColor=none;top=0;left=0;bottom=0;right=0;fontStyle=1;overflow=hidden;whiteSpace=wrap;html=1;" vertex="1" parent="TJUkrI_AIj82atkH7xTK-139">
          <mxGeometry width="30" height="30" as="geometry">
            <mxRectangle width="30" height="30" as="alternateBounds" />
          </mxGeometry>
        </mxCell>
        <mxCell id="TJUkrI_AIj82atkH7xTK-141" value="telefone" style="shape=partialRectangle;connectable=0;fillColor=none;top=0;left=0;bottom=0;right=0;align=left;spacingLeft=6;fontStyle=1;overflow=hidden;whiteSpace=wrap;html=1;" vertex="1" parent="TJUkrI_AIj82atkH7xTK-139">
          <mxGeometry x="30" width="110" height="30" as="geometry">
            <mxRectangle width="110" height="30" as="alternateBounds" />
          </mxGeometry>
        </mxCell>
        <mxCell id="TJUkrI_AIj82atkH7xTK-142" value="INT" style="shape=partialRectangle;connectable=0;fillColor=none;top=0;left=0;bottom=0;right=0;align=left;spacingLeft=6;fontStyle=1;overflow=hidden;whiteSpace=wrap;html=1;" vertex="1" parent="TJUkrI_AIj82atkH7xTK-139">
          <mxGeometry x="140" width="100.00000000000023" height="30" as="geometry">
            <mxRectangle width="100.00000000000023" height="30" as="alternateBounds" />
          </mxGeometry>
        </mxCell>
        <mxCell id="TJUkrI_AIj82atkH7xTK-143" style="shape=tableRow;horizontal=0;startSize=0;swimlaneHead=0;swimlaneBody=0;fillColor=none;collapsible=0;dropTarget=0;points=[[0,0.5],[1,0.5]];portConstraint=eastwest;top=0;left=0;right=0;bottom=1;fontStyle=0" vertex="1" parent="TJUkrI_AIj82atkH7xTK-122">
          <mxGeometry y="180" width="240.00000000000023" height="30" as="geometry" />
        </mxCell>
        <mxCell id="TJUkrI_AIj82atkH7xTK-144" style="shape=partialRectangle;connectable=0;fillColor=none;top=0;left=0;bottom=0;right=0;fontStyle=1;overflow=hidden;whiteSpace=wrap;html=1;" vertex="1" parent="TJUkrI_AIj82atkH7xTK-143">
          <mxGeometry width="30" height="30" as="geometry">
            <mxRectangle width="30" height="30" as="alternateBounds" />
          </mxGeometry>
        </mxCell>
        <mxCell id="TJUkrI_AIj82atkH7xTK-145" value="email" style="shape=partialRectangle;connectable=0;fillColor=none;top=0;left=0;bottom=0;right=0;align=left;spacingLeft=6;fontStyle=1;overflow=hidden;whiteSpace=wrap;html=1;" vertex="1" parent="TJUkrI_AIj82atkH7xTK-143">
          <mxGeometry x="30" width="110" height="30" as="geometry">
            <mxRectangle width="110" height="30" as="alternateBounds" />
          </mxGeometry>
        </mxCell>
        <mxCell id="TJUkrI_AIj82atkH7xTK-146" value="VARCHAR" style="shape=partialRectangle;connectable=0;fillColor=none;top=0;left=0;bottom=0;right=0;align=left;spacingLeft=6;fontStyle=1;overflow=hidden;whiteSpace=wrap;html=1;" vertex="1" parent="TJUkrI_AIj82atkH7xTK-143">
          <mxGeometry x="140" width="100.00000000000023" height="30" as="geometry">
            <mxRectangle width="100.00000000000023" height="30" as="alternateBounds" />
          </mxGeometry>
        </mxCell>
        <mxCell id="TJUkrI_AIj82atkH7xTK-147" style="shape=tableRow;horizontal=0;startSize=0;swimlaneHead=0;swimlaneBody=0;fillColor=none;collapsible=0;dropTarget=0;points=[[0,0.5],[1,0.5]];portConstraint=eastwest;top=0;left=0;right=0;bottom=1;fontStyle=0" vertex="1" parent="TJUkrI_AIj82atkH7xTK-122">
          <mxGeometry y="210" width="240.00000000000023" height="30" as="geometry" />
        </mxCell>
        <mxCell id="TJUkrI_AIj82atkH7xTK-148" value="FK" style="shape=partialRectangle;connectable=0;fillColor=none;top=0;left=0;bottom=0;right=0;fontStyle=1;overflow=hidden;whiteSpace=wrap;html=1;" vertex="1" parent="TJUkrI_AIj82atkH7xTK-147">
          <mxGeometry width="30" height="30" as="geometry">
            <mxRectangle width="30" height="30" as="alternateBounds" />
          </mxGeometry>
        </mxCell>
        <mxCell id="TJUkrI_AIj82atkH7xTK-149" value="id_funcao" style="shape=partialRectangle;connectable=0;fillColor=none;top=0;left=0;bottom=0;right=0;align=left;spacingLeft=6;fontStyle=1;overflow=hidden;whiteSpace=wrap;html=1;" vertex="1" parent="TJUkrI_AIj82atkH7xTK-147">
          <mxGeometry x="30" width="110" height="30" as="geometry">
            <mxRectangle width="110" height="30" as="alternateBounds" />
          </mxGeometry>
        </mxCell>
        <mxCell id="TJUkrI_AIj82atkH7xTK-150" value="INT" style="shape=partialRectangle;connectable=0;fillColor=none;top=0;left=0;bottom=0;right=0;align=left;spacingLeft=6;fontStyle=1;overflow=hidden;whiteSpace=wrap;html=1;" vertex="1" parent="TJUkrI_AIj82atkH7xTK-147">
          <mxGeometry x="140" width="100.00000000000023" height="30" as="geometry">
            <mxRectangle width="100.00000000000023" height="30" as="alternateBounds" />
          </mxGeometry>
        </mxCell>
        <mxCell id="TJUkrI_AIj82atkH7xTK-151" value="camioes" style="shape=table;startSize=30;container=1;collapsible=1;childLayout=tableLayout;fixedRows=1;rowLines=0;fontStyle=1;align=center;resizeLast=1;html=1;fillColor=#dae8fc;strokeColor=#6c8ebf;" vertex="1" parent="1">
          <mxGeometry x="-440" y="370" width="240" height="150" as="geometry" />
        </mxCell>
        <mxCell id="TJUkrI_AIj82atkH7xTK-152" style="shape=tableRow;horizontal=0;startSize=0;swimlaneHead=0;swimlaneBody=0;fillColor=none;collapsible=0;dropTarget=0;points=[[0,0.5],[1,0.5]];portConstraint=eastwest;top=0;left=0;right=0;bottom=1;fontStyle=0" vertex="1" parent="TJUkrI_AIj82atkH7xTK-151">
          <mxGeometry y="30" width="240" height="30" as="geometry" />
        </mxCell>
        <mxCell id="TJUkrI_AIj82atkH7xTK-153" value="PK" style="shape=partialRectangle;connectable=0;fillColor=none;top=0;left=0;bottom=0;right=0;fontStyle=1;overflow=hidden;whiteSpace=wrap;html=1;" vertex="1" parent="TJUkrI_AIj82atkH7xTK-152">
          <mxGeometry width="30" height="30" as="geometry">
            <mxRectangle width="30" height="30" as="alternateBounds" />
          </mxGeometry>
        </mxCell>
        <mxCell id="TJUkrI_AIj82atkH7xTK-154" value="id_camiao" style="shape=partialRectangle;connectable=0;fillColor=none;top=0;left=0;bottom=0;right=0;align=left;spacingLeft=6;fontStyle=1;overflow=hidden;whiteSpace=wrap;html=1;" vertex="1" parent="TJUkrI_AIj82atkH7xTK-152">
          <mxGeometry x="30" width="110" height="30" as="geometry">
            <mxRectangle width="110" height="30" as="alternateBounds" />
          </mxGeometry>
        </mxCell>
        <mxCell id="TJUkrI_AIj82atkH7xTK-155" value="INT" style="shape=partialRectangle;connectable=0;fillColor=none;top=0;left=0;bottom=0;right=0;align=left;spacingLeft=6;fontStyle=1;overflow=hidden;whiteSpace=wrap;html=1;" vertex="1" parent="TJUkrI_AIj82atkH7xTK-152">
          <mxGeometry x="140" width="100" height="30" as="geometry">
            <mxRectangle width="100" height="30" as="alternateBounds" />
          </mxGeometry>
        </mxCell>
        <mxCell id="TJUkrI_AIj82atkH7xTK-156" style="shape=tableRow;horizontal=0;startSize=0;swimlaneHead=0;swimlaneBody=0;fillColor=none;collapsible=0;dropTarget=0;points=[[0,0.5],[1,0.5]];portConstraint=eastwest;top=0;left=0;right=0;bottom=1;fontStyle=0" vertex="1" parent="TJUkrI_AIj82atkH7xTK-151">
          <mxGeometry y="60" width="240" height="30" as="geometry" />
        </mxCell>
        <mxCell id="TJUkrI_AIj82atkH7xTK-157" value="" style="shape=partialRectangle;connectable=0;fillColor=none;top=0;left=0;bottom=0;right=0;fontStyle=1;overflow=hidden;whiteSpace=wrap;html=1;" vertex="1" parent="TJUkrI_AIj82atkH7xTK-156">
          <mxGeometry width="30" height="30" as="geometry">
            <mxRectangle width="30" height="30" as="alternateBounds" />
          </mxGeometry>
        </mxCell>
        <mxCell id="TJUkrI_AIj82atkH7xTK-158" value="temperatura" style="shape=partialRectangle;connectable=0;fillColor=none;top=0;left=0;bottom=0;right=0;align=left;spacingLeft=6;fontStyle=1;overflow=hidden;whiteSpace=wrap;html=1;" vertex="1" parent="TJUkrI_AIj82atkH7xTK-156">
          <mxGeometry x="30" width="110" height="30" as="geometry">
            <mxRectangle width="110" height="30" as="alternateBounds" />
          </mxGeometry>
        </mxCell>
        <mxCell id="TJUkrI_AIj82atkH7xTK-159" value="INT" style="shape=partialRectangle;connectable=0;fillColor=none;top=0;left=0;bottom=0;right=0;align=left;spacingLeft=6;fontStyle=1;overflow=hidden;whiteSpace=wrap;html=1;" vertex="1" parent="TJUkrI_AIj82atkH7xTK-156">
          <mxGeometry x="140" width="100" height="30" as="geometry">
            <mxRectangle width="100" height="30" as="alternateBounds" />
          </mxGeometry>
        </mxCell>
        <mxCell id="TJUkrI_AIj82atkH7xTK-160" style="shape=tableRow;horizontal=0;startSize=0;swimlaneHead=0;swimlaneBody=0;fillColor=none;collapsible=0;dropTarget=0;points=[[0,0.5],[1,0.5]];portConstraint=eastwest;top=0;left=0;right=0;bottom=1;fontStyle=0" vertex="1" parent="TJUkrI_AIj82atkH7xTK-151">
          <mxGeometry y="90" width="240" height="30" as="geometry" />
        </mxCell>
        <mxCell id="TJUkrI_AIj82atkH7xTK-161" value="" style="shape=partialRectangle;connectable=0;fillColor=none;top=0;left=0;bottom=0;right=0;fontStyle=1;overflow=hidden;whiteSpace=wrap;html=1;" vertex="1" parent="TJUkrI_AIj82atkH7xTK-160">
          <mxGeometry width="30" height="30" as="geometry">
            <mxRectangle width="30" height="30" as="alternateBounds" />
          </mxGeometry>
        </mxCell>
        <mxCell id="TJUkrI_AIj82atkH7xTK-162" value="max_paletes" style="shape=partialRectangle;connectable=0;fillColor=none;top=0;left=0;bottom=0;right=0;align=left;spacingLeft=6;fontStyle=1;overflow=hidden;whiteSpace=wrap;html=1;" vertex="1" parent="TJUkrI_AIj82atkH7xTK-160">
          <mxGeometry x="30" width="110" height="30" as="geometry">
            <mxRectangle width="110" height="30" as="alternateBounds" />
          </mxGeometry>
        </mxCell>
        <mxCell id="TJUkrI_AIj82atkH7xTK-163" value="INT" style="shape=partialRectangle;connectable=0;fillColor=none;top=0;left=0;bottom=0;right=0;align=left;spacingLeft=6;fontStyle=1;overflow=hidden;whiteSpace=wrap;html=1;" vertex="1" parent="TJUkrI_AIj82atkH7xTK-160">
          <mxGeometry x="140" width="100" height="30" as="geometry">
            <mxRectangle width="100" height="30" as="alternateBounds" />
          </mxGeometry>
        </mxCell>
        <mxCell id="D10CChOpMTVjQ6Qw_5FX-2" style="shape=tableRow;horizontal=0;startSize=0;swimlaneHead=0;swimlaneBody=0;fillColor=none;collapsible=0;dropTarget=0;points=[[0,0.5],[1,0.5]];portConstraint=eastwest;top=0;left=0;right=0;bottom=1;fontStyle=0" vertex="1" parent="TJUkrI_AIj82atkH7xTK-151">
          <mxGeometry y="120" width="240" height="30" as="geometry" />
        </mxCell>
        <mxCell id="D10CChOpMTVjQ6Qw_5FX-3" value="FK" style="shape=partialRectangle;connectable=0;fillColor=none;top=0;left=0;bottom=0;right=0;fontStyle=1;overflow=hidden;whiteSpace=wrap;html=1;" vertex="1" parent="D10CChOpMTVjQ6Qw_5FX-2">
          <mxGeometry width="30" height="30" as="geometry">
            <mxRectangle width="30" height="30" as="alternateBounds" />
          </mxGeometry>
        </mxCell>
        <mxCell id="D10CChOpMTVjQ6Qw_5FX-4" value="id_armazem" style="shape=partialRectangle;connectable=0;fillColor=none;top=0;left=0;bottom=0;right=0;align=left;spacingLeft=6;fontStyle=1;overflow=hidden;whiteSpace=wrap;html=1;" vertex="1" parent="D10CChOpMTVjQ6Qw_5FX-2">
          <mxGeometry x="30" width="110" height="30" as="geometry">
            <mxRectangle width="110" height="30" as="alternateBounds" />
          </mxGeometry>
        </mxCell>
        <mxCell id="D10CChOpMTVjQ6Qw_5FX-5" value="INT" style="shape=partialRectangle;connectable=0;fillColor=none;top=0;left=0;bottom=0;right=0;align=left;spacingLeft=6;fontStyle=1;overflow=hidden;whiteSpace=wrap;html=1;" vertex="1" parent="D10CChOpMTVjQ6Qw_5FX-2">
          <mxGeometry x="140" width="100" height="30" as="geometry">
            <mxRectangle width="100" height="30" as="alternateBounds" />
          </mxGeometry>
        </mxCell>
        <mxCell id="TJUkrI_AIj82atkH7xTK-180" value="clientes" style="shape=table;startSize=30;container=1;collapsible=1;childLayout=tableLayout;fixedRows=1;rowLines=0;fontStyle=1;align=center;resizeLast=1;html=1;fillColor=#dae8fc;strokeColor=#6c8ebf;" vertex="1" parent="1">
          <mxGeometry x="-1080" y="240" width="240.00000000000023" height="180" as="geometry" />
        </mxCell>
        <mxCell id="TJUkrI_AIj82atkH7xTK-181" style="shape=tableRow;horizontal=0;startSize=0;swimlaneHead=0;swimlaneBody=0;fillColor=none;collapsible=0;dropTarget=0;points=[[0,0.5],[1,0.5]];portConstraint=eastwest;top=0;left=0;right=0;bottom=1;fontStyle=0" vertex="1" parent="TJUkrI_AIj82atkH7xTK-180">
          <mxGeometry y="30" width="240.00000000000023" height="30" as="geometry" />
        </mxCell>
        <mxCell id="TJUkrI_AIj82atkH7xTK-182" value="PK" style="shape=partialRectangle;connectable=0;fillColor=none;top=0;left=0;bottom=0;right=0;fontStyle=1;overflow=hidden;whiteSpace=wrap;html=1;" vertex="1" parent="TJUkrI_AIj82atkH7xTK-181">
          <mxGeometry width="30" height="30" as="geometry">
            <mxRectangle width="30" height="30" as="alternateBounds" />
          </mxGeometry>
        </mxCell>
        <mxCell id="TJUkrI_AIj82atkH7xTK-183" value="id_cliente" style="shape=partialRectangle;connectable=0;fillColor=none;top=0;left=0;bottom=0;right=0;align=left;spacingLeft=6;fontStyle=1;overflow=hidden;whiteSpace=wrap;html=1;" vertex="1" parent="TJUkrI_AIj82atkH7xTK-181">
          <mxGeometry x="30" width="110" height="30" as="geometry">
            <mxRectangle width="110" height="30" as="alternateBounds" />
          </mxGeometry>
        </mxCell>
        <mxCell id="TJUkrI_AIj82atkH7xTK-184" value="INT" style="shape=partialRectangle;connectable=0;fillColor=none;top=0;left=0;bottom=0;right=0;align=left;spacingLeft=6;fontStyle=1;overflow=hidden;whiteSpace=wrap;html=1;" vertex="1" parent="TJUkrI_AIj82atkH7xTK-181">
          <mxGeometry x="140" width="100.00000000000023" height="30" as="geometry">
            <mxRectangle width="100.00000000000023" height="30" as="alternateBounds" />
          </mxGeometry>
        </mxCell>
        <mxCell id="TJUkrI_AIj82atkH7xTK-185" style="shape=tableRow;horizontal=0;startSize=0;swimlaneHead=0;swimlaneBody=0;fillColor=none;collapsible=0;dropTarget=0;points=[[0,0.5],[1,0.5]];portConstraint=eastwest;top=0;left=0;right=0;bottom=1;fontStyle=0" vertex="1" parent="TJUkrI_AIj82atkH7xTK-180">
          <mxGeometry y="60" width="240.00000000000023" height="30" as="geometry" />
        </mxCell>
        <mxCell id="TJUkrI_AIj82atkH7xTK-186" value="" style="shape=partialRectangle;connectable=0;fillColor=none;top=0;left=0;bottom=0;right=0;fontStyle=1;overflow=hidden;whiteSpace=wrap;html=1;" vertex="1" parent="TJUkrI_AIj82atkH7xTK-185">
          <mxGeometry width="30" height="30" as="geometry">
            <mxRectangle width="30" height="30" as="alternateBounds" />
          </mxGeometry>
        </mxCell>
        <mxCell id="TJUkrI_AIj82atkH7xTK-187" value="nome" style="shape=partialRectangle;connectable=0;fillColor=none;top=0;left=0;bottom=0;right=0;align=left;spacingLeft=6;fontStyle=1;overflow=hidden;whiteSpace=wrap;html=1;" vertex="1" parent="TJUkrI_AIj82atkH7xTK-185">
          <mxGeometry x="30" width="110" height="30" as="geometry">
            <mxRectangle width="110" height="30" as="alternateBounds" />
          </mxGeometry>
        </mxCell>
        <mxCell id="TJUkrI_AIj82atkH7xTK-188" value="VARCHAR" style="shape=partialRectangle;connectable=0;fillColor=none;top=0;left=0;bottom=0;right=0;align=left;spacingLeft=6;fontStyle=1;overflow=hidden;whiteSpace=wrap;html=1;" vertex="1" parent="TJUkrI_AIj82atkH7xTK-185">
          <mxGeometry x="140" width="100.00000000000023" height="30" as="geometry">
            <mxRectangle width="100.00000000000023" height="30" as="alternateBounds" />
          </mxGeometry>
        </mxCell>
        <mxCell id="TJUkrI_AIj82atkH7xTK-189" style="shape=tableRow;horizontal=0;startSize=0;swimlaneHead=0;swimlaneBody=0;fillColor=none;collapsible=0;dropTarget=0;points=[[0,0.5],[1,0.5]];portConstraint=eastwest;top=0;left=0;right=0;bottom=1;fontStyle=0" vertex="1" parent="TJUkrI_AIj82atkH7xTK-180">
          <mxGeometry y="90" width="240.00000000000023" height="30" as="geometry" />
        </mxCell>
        <mxCell id="TJUkrI_AIj82atkH7xTK-190" value="" style="shape=partialRectangle;connectable=0;fillColor=none;top=0;left=0;bottom=0;right=0;fontStyle=1;overflow=hidden;whiteSpace=wrap;html=1;" vertex="1" parent="TJUkrI_AIj82atkH7xTK-189">
          <mxGeometry width="30" height="30" as="geometry">
            <mxRectangle width="30" height="30" as="alternateBounds" />
          </mxGeometry>
        </mxCell>
        <mxCell id="TJUkrI_AIj82atkH7xTK-191" value="morada" style="shape=partialRectangle;connectable=0;fillColor=none;top=0;left=0;bottom=0;right=0;align=left;spacingLeft=6;fontStyle=1;overflow=hidden;whiteSpace=wrap;html=1;" vertex="1" parent="TJUkrI_AIj82atkH7xTK-189">
          <mxGeometry x="30" width="110" height="30" as="geometry">
            <mxRectangle width="110" height="30" as="alternateBounds" />
          </mxGeometry>
        </mxCell>
        <mxCell id="TJUkrI_AIj82atkH7xTK-192" value="VARCHAR" style="shape=partialRectangle;connectable=0;fillColor=none;top=0;left=0;bottom=0;right=0;align=left;spacingLeft=6;fontStyle=1;overflow=hidden;whiteSpace=wrap;html=1;" vertex="1" parent="TJUkrI_AIj82atkH7xTK-189">
          <mxGeometry x="140" width="100.00000000000023" height="30" as="geometry">
            <mxRectangle width="100.00000000000023" height="30" as="alternateBounds" />
          </mxGeometry>
        </mxCell>
        <mxCell id="TJUkrI_AIj82atkH7xTK-193" style="shape=tableRow;horizontal=0;startSize=0;swimlaneHead=0;swimlaneBody=0;fillColor=none;collapsible=0;dropTarget=0;points=[[0,0.5],[1,0.5]];portConstraint=eastwest;top=0;left=0;right=0;bottom=1;fontStyle=0" vertex="1" parent="TJUkrI_AIj82atkH7xTK-180">
          <mxGeometry y="120" width="240.00000000000023" height="30" as="geometry" />
        </mxCell>
        <mxCell id="TJUkrI_AIj82atkH7xTK-194" value="" style="shape=partialRectangle;connectable=0;fillColor=none;top=0;left=0;bottom=0;right=0;fontStyle=1;overflow=hidden;whiteSpace=wrap;html=1;" vertex="1" parent="TJUkrI_AIj82atkH7xTK-193">
          <mxGeometry width="30" height="30" as="geometry">
            <mxRectangle width="30" height="30" as="alternateBounds" />
          </mxGeometry>
        </mxCell>
        <mxCell id="TJUkrI_AIj82atkH7xTK-195" value="telefone" style="shape=partialRectangle;connectable=0;fillColor=none;top=0;left=0;bottom=0;right=0;align=left;spacingLeft=6;fontStyle=1;overflow=hidden;whiteSpace=wrap;html=1;" vertex="1" parent="TJUkrI_AIj82atkH7xTK-193">
          <mxGeometry x="30" width="110" height="30" as="geometry">
            <mxRectangle width="110" height="30" as="alternateBounds" />
          </mxGeometry>
        </mxCell>
        <mxCell id="TJUkrI_AIj82atkH7xTK-196" value="INT" style="shape=partialRectangle;connectable=0;fillColor=none;top=0;left=0;bottom=0;right=0;align=left;spacingLeft=6;fontStyle=1;overflow=hidden;whiteSpace=wrap;html=1;" vertex="1" parent="TJUkrI_AIj82atkH7xTK-193">
          <mxGeometry x="140" width="100.00000000000023" height="30" as="geometry">
            <mxRectangle width="100.00000000000023" height="30" as="alternateBounds" />
          </mxGeometry>
        </mxCell>
        <mxCell id="TJUkrI_AIj82atkH7xTK-197" style="shape=tableRow;horizontal=0;startSize=0;swimlaneHead=0;swimlaneBody=0;fillColor=none;collapsible=0;dropTarget=0;points=[[0,0.5],[1,0.5]];portConstraint=eastwest;top=0;left=0;right=0;bottom=1;fontStyle=0" vertex="1" parent="TJUkrI_AIj82atkH7xTK-180">
          <mxGeometry y="150" width="240.00000000000023" height="30" as="geometry" />
        </mxCell>
        <mxCell id="TJUkrI_AIj82atkH7xTK-198" value="" style="shape=partialRectangle;connectable=0;fillColor=none;top=0;left=0;bottom=0;right=0;fontStyle=1;overflow=hidden;whiteSpace=wrap;html=1;" vertex="1" parent="TJUkrI_AIj82atkH7xTK-197">
          <mxGeometry width="30" height="30" as="geometry">
            <mxRectangle width="30" height="30" as="alternateBounds" />
          </mxGeometry>
        </mxCell>
        <mxCell id="TJUkrI_AIj82atkH7xTK-199" value="email" style="shape=partialRectangle;connectable=0;fillColor=none;top=0;left=0;bottom=0;right=0;align=left;spacingLeft=6;fontStyle=1;overflow=hidden;whiteSpace=wrap;html=1;" vertex="1" parent="TJUkrI_AIj82atkH7xTK-197">
          <mxGeometry x="30" width="110" height="30" as="geometry">
            <mxRectangle width="110" height="30" as="alternateBounds" />
          </mxGeometry>
        </mxCell>
        <mxCell id="TJUkrI_AIj82atkH7xTK-200" value="VARCHAR" style="shape=partialRectangle;connectable=0;fillColor=none;top=0;left=0;bottom=0;right=0;align=left;spacingLeft=6;fontStyle=1;overflow=hidden;whiteSpace=wrap;html=1;" vertex="1" parent="TJUkrI_AIj82atkH7xTK-197">
          <mxGeometry x="140" width="100.00000000000023" height="30" as="geometry">
            <mxRectangle width="100.00000000000023" height="30" as="alternateBounds" />
          </mxGeometry>
        </mxCell>
        <mxCell id="nXBPSPl5BzmQNC-E3DmG-1" value="rotas" style="shape=table;startSize=30;container=1;collapsible=1;childLayout=tableLayout;fixedRows=1;rowLines=0;fontStyle=1;align=center;resizeLast=1;html=1;fillColor=#dae8fc;strokeColor=#6c8ebf;" vertex="1" parent="1">
          <mxGeometry x="-440" y="560" width="240.00000000000023" height="180" as="geometry" />
        </mxCell>
        <mxCell id="nXBPSPl5BzmQNC-E3DmG-2" style="shape=tableRow;horizontal=0;startSize=0;swimlaneHead=0;swimlaneBody=0;fillColor=none;collapsible=0;dropTarget=0;points=[[0,0.5],[1,0.5]];portConstraint=eastwest;top=0;left=0;right=0;bottom=1;fontStyle=0" vertex="1" parent="nXBPSPl5BzmQNC-E3DmG-1">
          <mxGeometry y="30" width="240.00000000000023" height="30" as="geometry" />
        </mxCell>
        <mxCell id="nXBPSPl5BzmQNC-E3DmG-3" value="PK" style="shape=partialRectangle;connectable=0;fillColor=none;top=0;left=0;bottom=0;right=0;fontStyle=1;overflow=hidden;whiteSpace=wrap;html=1;" vertex="1" parent="nXBPSPl5BzmQNC-E3DmG-2">
          <mxGeometry width="30" height="30" as="geometry">
            <mxRectangle width="30" height="30" as="alternateBounds" />
          </mxGeometry>
        </mxCell>
        <mxCell id="nXBPSPl5BzmQNC-E3DmG-4" value="id_rota" style="shape=partialRectangle;connectable=0;fillColor=none;top=0;left=0;bottom=0;right=0;align=left;spacingLeft=6;fontStyle=1;overflow=hidden;whiteSpace=wrap;html=1;" vertex="1" parent="nXBPSPl5BzmQNC-E3DmG-2">
          <mxGeometry x="30" width="110" height="30" as="geometry">
            <mxRectangle width="110" height="30" as="alternateBounds" />
          </mxGeometry>
        </mxCell>
        <mxCell id="nXBPSPl5BzmQNC-E3DmG-5" value="INT" style="shape=partialRectangle;connectable=0;fillColor=none;top=0;left=0;bottom=0;right=0;align=left;spacingLeft=6;fontStyle=1;overflow=hidden;whiteSpace=wrap;html=1;" vertex="1" parent="nXBPSPl5BzmQNC-E3DmG-2">
          <mxGeometry x="140" width="100.00000000000023" height="30" as="geometry">
            <mxRectangle width="100.00000000000023" height="30" as="alternateBounds" />
          </mxGeometry>
        </mxCell>
        <mxCell id="nXBPSPl5BzmQNC-E3DmG-6" style="shape=tableRow;horizontal=0;startSize=0;swimlaneHead=0;swimlaneBody=0;fillColor=none;collapsible=0;dropTarget=0;points=[[0,0.5],[1,0.5]];portConstraint=eastwest;top=0;left=0;right=0;bottom=1;fontStyle=0" vertex="1" parent="nXBPSPl5BzmQNC-E3DmG-1">
          <mxGeometry y="60" width="240.00000000000023" height="30" as="geometry" />
        </mxCell>
        <mxCell id="nXBPSPl5BzmQNC-E3DmG-7" value="" style="shape=partialRectangle;connectable=0;fillColor=none;top=0;left=0;bottom=0;right=0;fontStyle=1;overflow=hidden;whiteSpace=wrap;html=1;" vertex="1" parent="nXBPSPl5BzmQNC-E3DmG-6">
          <mxGeometry width="30" height="30" as="geometry">
            <mxRectangle width="30" height="30" as="alternateBounds" />
          </mxGeometry>
        </mxCell>
        <mxCell id="nXBPSPl5BzmQNC-E3DmG-8" value="proposito" style="shape=partialRectangle;connectable=0;fillColor=none;top=0;left=0;bottom=0;right=0;align=left;spacingLeft=6;fontStyle=1;overflow=hidden;whiteSpace=wrap;html=1;" vertex="1" parent="nXBPSPl5BzmQNC-E3DmG-6">
          <mxGeometry x="30" width="110" height="30" as="geometry">
            <mxRectangle width="110" height="30" as="alternateBounds" />
          </mxGeometry>
        </mxCell>
        <mxCell id="nXBPSPl5BzmQNC-E3DmG-9" value="VARCHAR" style="shape=partialRectangle;connectable=0;fillColor=none;top=0;left=0;bottom=0;right=0;align=left;spacingLeft=6;fontStyle=1;overflow=hidden;whiteSpace=wrap;html=1;" vertex="1" parent="nXBPSPl5BzmQNC-E3DmG-6">
          <mxGeometry x="140" width="100.00000000000023" height="30" as="geometry">
            <mxRectangle width="100.00000000000023" height="30" as="alternateBounds" />
          </mxGeometry>
        </mxCell>
        <mxCell id="3uXmnmBapKz6rdt-0X6b-14" style="shape=tableRow;horizontal=0;startSize=0;swimlaneHead=0;swimlaneBody=0;fillColor=none;collapsible=0;dropTarget=0;points=[[0,0.5],[1,0.5]];portConstraint=eastwest;top=0;left=0;right=0;bottom=1;fontStyle=0" vertex="1" parent="nXBPSPl5BzmQNC-E3DmG-1">
          <mxGeometry y="90" width="240.00000000000023" height="30" as="geometry" />
        </mxCell>
        <mxCell id="3uXmnmBapKz6rdt-0X6b-15" value="FK" style="shape=partialRectangle;connectable=0;fillColor=none;top=0;left=0;bottom=0;right=0;fontStyle=1;overflow=hidden;whiteSpace=wrap;html=1;" vertex="1" parent="3uXmnmBapKz6rdt-0X6b-14">
          <mxGeometry width="30" height="30" as="geometry">
            <mxRectangle width="30" height="30" as="alternateBounds" />
          </mxGeometry>
        </mxCell>
        <mxCell id="3uXmnmBapKz6rdt-0X6b-16" value="id_planeador" style="shape=partialRectangle;connectable=0;fillColor=none;top=0;left=0;bottom=0;right=0;align=left;spacingLeft=6;fontStyle=1;overflow=hidden;whiteSpace=wrap;html=1;" vertex="1" parent="3uXmnmBapKz6rdt-0X6b-14">
          <mxGeometry x="30" width="110" height="30" as="geometry">
            <mxRectangle width="110" height="30" as="alternateBounds" />
          </mxGeometry>
        </mxCell>
        <mxCell id="3uXmnmBapKz6rdt-0X6b-17" value="INT" style="shape=partialRectangle;connectable=0;fillColor=none;top=0;left=0;bottom=0;right=0;align=left;spacingLeft=6;fontStyle=1;overflow=hidden;whiteSpace=wrap;html=1;" vertex="1" parent="3uXmnmBapKz6rdt-0X6b-14">
          <mxGeometry x="140" width="100.00000000000023" height="30" as="geometry">
            <mxRectangle width="100.00000000000023" height="30" as="alternateBounds" />
          </mxGeometry>
        </mxCell>
        <mxCell id="3uXmnmBapKz6rdt-0X6b-18" style="shape=tableRow;horizontal=0;startSize=0;swimlaneHead=0;swimlaneBody=0;fillColor=none;collapsible=0;dropTarget=0;points=[[0,0.5],[1,0.5]];portConstraint=eastwest;top=0;left=0;right=0;bottom=1;fontStyle=0" vertex="1" parent="nXBPSPl5BzmQNC-E3DmG-1">
          <mxGeometry y="120" width="240.00000000000023" height="30" as="geometry" />
        </mxCell>
        <mxCell id="3uXmnmBapKz6rdt-0X6b-19" value="FK" style="shape=partialRectangle;connectable=0;fillColor=none;top=0;left=0;bottom=0;right=0;fontStyle=1;overflow=hidden;whiteSpace=wrap;html=1;" vertex="1" parent="3uXmnmBapKz6rdt-0X6b-18">
          <mxGeometry width="30" height="30" as="geometry">
            <mxRectangle width="30" height="30" as="alternateBounds" />
          </mxGeometry>
        </mxCell>
        <mxCell id="3uXmnmBapKz6rdt-0X6b-20" value="id_condutor" style="shape=partialRectangle;connectable=0;fillColor=none;top=0;left=0;bottom=0;right=0;align=left;spacingLeft=6;fontStyle=1;overflow=hidden;whiteSpace=wrap;html=1;" vertex="1" parent="3uXmnmBapKz6rdt-0X6b-18">
          <mxGeometry x="30" width="110" height="30" as="geometry">
            <mxRectangle width="110" height="30" as="alternateBounds" />
          </mxGeometry>
        </mxCell>
        <mxCell id="3uXmnmBapKz6rdt-0X6b-21" value="INT" style="shape=partialRectangle;connectable=0;fillColor=none;top=0;left=0;bottom=0;right=0;align=left;spacingLeft=6;fontStyle=1;overflow=hidden;whiteSpace=wrap;html=1;" vertex="1" parent="3uXmnmBapKz6rdt-0X6b-18">
          <mxGeometry x="140" width="100.00000000000023" height="30" as="geometry">
            <mxRectangle width="100.00000000000023" height="30" as="alternateBounds" />
          </mxGeometry>
        </mxCell>
        <mxCell id="9bkpUD1kCtrm5mGs5nno-1" style="shape=tableRow;horizontal=0;startSize=0;swimlaneHead=0;swimlaneBody=0;fillColor=none;collapsible=0;dropTarget=0;points=[[0,0.5],[1,0.5]];portConstraint=eastwest;top=0;left=0;right=0;bottom=1;fontStyle=0" vertex="1" parent="nXBPSPl5BzmQNC-E3DmG-1">
          <mxGeometry y="150" width="240.00000000000023" height="30" as="geometry" />
        </mxCell>
        <mxCell id="9bkpUD1kCtrm5mGs5nno-2" value="FK" style="shape=partialRectangle;connectable=0;fillColor=none;top=0;left=0;bottom=0;right=0;fontStyle=1;overflow=hidden;whiteSpace=wrap;html=1;" vertex="1" parent="9bkpUD1kCtrm5mGs5nno-1">
          <mxGeometry width="30" height="30" as="geometry">
            <mxRectangle width="30" height="30" as="alternateBounds" />
          </mxGeometry>
        </mxCell>
        <mxCell id="9bkpUD1kCtrm5mGs5nno-3" value="id_camiao" style="shape=partialRectangle;connectable=0;fillColor=none;top=0;left=0;bottom=0;right=0;align=left;spacingLeft=6;fontStyle=1;overflow=hidden;whiteSpace=wrap;html=1;" vertex="1" parent="9bkpUD1kCtrm5mGs5nno-1">
          <mxGeometry x="30" width="110" height="30" as="geometry">
            <mxRectangle width="110" height="30" as="alternateBounds" />
          </mxGeometry>
        </mxCell>
        <mxCell id="9bkpUD1kCtrm5mGs5nno-4" value="INT" style="shape=partialRectangle;connectable=0;fillColor=none;top=0;left=0;bottom=0;right=0;align=left;spacingLeft=6;fontStyle=1;overflow=hidden;whiteSpace=wrap;html=1;" vertex="1" parent="9bkpUD1kCtrm5mGs5nno-1">
          <mxGeometry x="140" width="100.00000000000023" height="30" as="geometry">
            <mxRectangle width="100.00000000000023" height="30" as="alternateBounds" />
          </mxGeometry>
        </mxCell>
        <mxCell id="5YUUuFZC8pEfJffn3rSy-30" value="" style="fontSize=12;html=1;endArrow=ERoneToMany;startArrow=ERmandOne;rounded=0;edgeStyle=elbowEdgeStyle;elbow=vertical;" edge="1" parent="1" source="5YUUuFZC8pEfJffn3rSy-1" target="TJUkrI_AIj82atkH7xTK-147">
          <mxGeometry width="100" height="100" relative="1" as="geometry">
            <mxPoint x="-529.9999999999998" y="719.9999999999998" as="sourcePoint" />
            <mxPoint x="-410.0000000000002" y="719.9999999999998" as="targetPoint" />
          </mxGeometry>
        </mxCell>
        <mxCell id="L_5fZjpmQTclOnn-BZu5-1" value="" style="fontSize=12;html=1;endArrow=ERoneToMany;startArrow=ERmandOne;rounded=0;edgeStyle=elbowEdgeStyle;" edge="1" parent="1" source="TJUkrI_AIj82atkH7xTK-35" target="TJUkrI_AIj82atkH7xTK-73">
          <mxGeometry width="100" height="100" relative="1" as="geometry">
            <mxPoint x="-330" y="540" as="sourcePoint" />
            <mxPoint x="-1000" y="640" as="targetPoint" />
          </mxGeometry>
        </mxCell>
        <mxCell id="L_5fZjpmQTclOnn-BZu5-7" value="pedidos_em_armazem" style="shape=table;startSize=30;container=1;collapsible=1;childLayout=tableLayout;fixedRows=1;rowLines=0;fontStyle=1;align=center;resizeLast=1;html=1;fillColor=#ffe6cc;strokeColor=#d79b00;" vertex="1" parent="1">
          <mxGeometry x="-440" y="240" width="240" height="90" as="geometry" />
        </mxCell>
        <mxCell id="L_5fZjpmQTclOnn-BZu5-8" style="shape=tableRow;horizontal=0;startSize=0;swimlaneHead=0;swimlaneBody=0;fillColor=none;collapsible=0;dropTarget=0;points=[[0,0.5],[1,0.5]];portConstraint=eastwest;top=0;left=0;right=0;bottom=1;fontStyle=0" vertex="1" parent="L_5fZjpmQTclOnn-BZu5-7">
          <mxGeometry y="30" width="240" height="30" as="geometry" />
        </mxCell>
        <mxCell id="L_5fZjpmQTclOnn-BZu5-9" value="FK" style="shape=partialRectangle;connectable=0;fillColor=none;top=0;left=0;bottom=0;right=0;fontStyle=1;overflow=hidden;whiteSpace=wrap;html=1;" vertex="1" parent="L_5fZjpmQTclOnn-BZu5-8">
          <mxGeometry width="30" height="30" as="geometry">
            <mxRectangle width="30" height="30" as="alternateBounds" />
          </mxGeometry>
        </mxCell>
        <mxCell id="L_5fZjpmQTclOnn-BZu5-10" value="id_armazem" style="shape=partialRectangle;connectable=0;fillColor=none;top=0;left=0;bottom=0;right=0;align=left;spacingLeft=6;fontStyle=1;overflow=hidden;whiteSpace=wrap;html=1;" vertex="1" parent="L_5fZjpmQTclOnn-BZu5-8">
          <mxGeometry x="30" width="110" height="30" as="geometry">
            <mxRectangle width="110" height="30" as="alternateBounds" />
          </mxGeometry>
        </mxCell>
        <mxCell id="L_5fZjpmQTclOnn-BZu5-11" value="INT" style="shape=partialRectangle;connectable=0;fillColor=none;top=0;left=0;bottom=0;right=0;align=left;spacingLeft=6;fontStyle=1;overflow=hidden;whiteSpace=wrap;html=1;" vertex="1" parent="L_5fZjpmQTclOnn-BZu5-8">
          <mxGeometry x="140" width="100" height="30" as="geometry">
            <mxRectangle width="100" height="30" as="alternateBounds" />
          </mxGeometry>
        </mxCell>
        <mxCell id="L_5fZjpmQTclOnn-BZu5-12" style="shape=tableRow;horizontal=0;startSize=0;swimlaneHead=0;swimlaneBody=0;fillColor=none;collapsible=0;dropTarget=0;points=[[0,0.5],[1,0.5]];portConstraint=eastwest;top=0;left=0;right=0;bottom=1;fontStyle=0" vertex="1" parent="L_5fZjpmQTclOnn-BZu5-7">
          <mxGeometry y="60" width="240" height="30" as="geometry" />
        </mxCell>
        <mxCell id="L_5fZjpmQTclOnn-BZu5-13" value="FK" style="shape=partialRectangle;connectable=0;fillColor=none;top=0;left=0;bottom=0;right=0;fontStyle=1;overflow=hidden;whiteSpace=wrap;html=1;" vertex="1" parent="L_5fZjpmQTclOnn-BZu5-12">
          <mxGeometry width="30" height="30" as="geometry">
            <mxRectangle width="30" height="30" as="alternateBounds" />
          </mxGeometry>
        </mxCell>
        <mxCell id="L_5fZjpmQTclOnn-BZu5-14" value="id_pedido" style="shape=partialRectangle;connectable=0;fillColor=none;top=0;left=0;bottom=0;right=0;align=left;spacingLeft=6;fontStyle=1;overflow=hidden;whiteSpace=wrap;html=1;" vertex="1" parent="L_5fZjpmQTclOnn-BZu5-12">
          <mxGeometry x="30" width="110" height="30" as="geometry">
            <mxRectangle width="110" height="30" as="alternateBounds" />
          </mxGeometry>
        </mxCell>
        <mxCell id="L_5fZjpmQTclOnn-BZu5-15" value="INT" style="shape=partialRectangle;connectable=0;fillColor=none;top=0;left=0;bottom=0;right=0;align=left;spacingLeft=6;fontStyle=1;overflow=hidden;whiteSpace=wrap;html=1;" vertex="1" parent="L_5fZjpmQTclOnn-BZu5-12">
          <mxGeometry x="140" width="100" height="30" as="geometry">
            <mxRectangle width="100" height="30" as="alternateBounds" />
          </mxGeometry>
        </mxCell>
        <mxCell id="L_5fZjpmQTclOnn-BZu5-17" value="" style="fontSize=12;html=1;endArrow=ERzeroToOne;startArrow=ERmandOne;rounded=0;elbow=vertical;edgeStyle=orthogonalEdgeStyle;" edge="1" parent="1" source="L_5fZjpmQTclOnn-BZu5-12" target="TJUkrI_AIj82atkH7xTK-19">
          <mxGeometry width="100" height="100" relative="1" as="geometry">
            <mxPoint x="-40" y="610" as="sourcePoint" />
            <mxPoint x="60" y="510" as="targetPoint" />
            <Array as="points">
              <mxPoint x="-480" y="315" />
              <mxPoint x="-480" y="415" />
            </Array>
          </mxGeometry>
        </mxCell>
        <mxCell id="L_5fZjpmQTclOnn-BZu5-18" value="" style="fontSize=12;html=1;endArrow=ERzeroToMany;startArrow=ERmandOne;rounded=0;" edge="1" parent="1" source="L_5fZjpmQTclOnn-BZu5-8" target="ddXRot8dKywskyrU_UQT-32">
          <mxGeometry width="100" height="100" relative="1" as="geometry">
            <mxPoint x="-110" y="135" as="sourcePoint" />
            <mxPoint x="-10" y="35" as="targetPoint" />
          </mxGeometry>
        </mxCell>
        <mxCell id="L_5fZjpmQTclOnn-BZu5-19" value="" style="fontSize=12;html=1;endArrow=ERoneToMany;startArrow=ERmandOne;rounded=0;edgeStyle=elbowEdgeStyle;" edge="1" parent="1" source="TJUkrI_AIj82atkH7xTK-1" target="TJUkrI_AIj82atkH7xTK-152">
          <mxGeometry width="100" height="100" relative="1" as="geometry">
            <mxPoint x="320" y="460" as="sourcePoint" />
            <mxPoint x="420" y="360" as="targetPoint" />
          </mxGeometry>
        </mxCell>
        <mxCell id="L_5fZjpmQTclOnn-BZu5-20" value="" style="fontSize=12;html=1;endArrow=ERoneToMany;startArrow=ERmandOne;rounded=0;edgeStyle=elbowEdgeStyle;" edge="1" parent="1" source="ddXRot8dKywskyrU_UQT-16" target="TJUkrI_AIj82atkH7xTK-122">
          <mxGeometry width="100" height="100" relative="1" as="geometry">
            <mxPoint x="310" y="785" as="sourcePoint" />
            <mxPoint x="310" y="670" as="targetPoint" />
          </mxGeometry>
        </mxCell>
        <mxCell id="3uXmnmBapKz6rdt-0X6b-1" value="" style="edgeStyle=elbowEdgeStyle;fontSize=12;html=1;endArrow=ERzeroToMany;startArrow=ERmandOne;rounded=0;elbow=vertical;" edge="1" parent="1" source="D10CChOpMTVjQ6Qw_5FX-2" target="nXBPSPl5BzmQNC-E3DmG-1">
          <mxGeometry width="100" height="100" relative="1" as="geometry">
            <mxPoint x="-90" y="580" as="sourcePoint" />
            <mxPoint x="10" y="480" as="targetPoint" />
          </mxGeometry>
        </mxCell>
        <mxCell id="3uXmnmBapKz6rdt-0X6b-3" value="pedidos_em_rota" style="shape=table;startSize=30;container=1;collapsible=1;childLayout=tableLayout;fixedRows=1;rowLines=0;fontStyle=1;align=center;resizeLast=1;html=1;fillColor=#ffe6cc;strokeColor=#d79b00;" vertex="1" parent="1">
          <mxGeometry x="-760" y="590" width="240" height="90" as="geometry" />
        </mxCell>
        <mxCell id="3uXmnmBapKz6rdt-0X6b-4" style="shape=tableRow;horizontal=0;startSize=0;swimlaneHead=0;swimlaneBody=0;fillColor=none;collapsible=0;dropTarget=0;points=[[0,0.5],[1,0.5]];portConstraint=eastwest;top=0;left=0;right=0;bottom=1;fontStyle=0" vertex="1" parent="3uXmnmBapKz6rdt-0X6b-3">
          <mxGeometry y="30" width="240" height="30" as="geometry" />
        </mxCell>
        <mxCell id="3uXmnmBapKz6rdt-0X6b-5" value="FK" style="shape=partialRectangle;connectable=0;fillColor=none;top=0;left=0;bottom=0;right=0;fontStyle=1;overflow=hidden;whiteSpace=wrap;html=1;" vertex="1" parent="3uXmnmBapKz6rdt-0X6b-4">
          <mxGeometry width="30" height="30" as="geometry">
            <mxRectangle width="30" height="30" as="alternateBounds" />
          </mxGeometry>
        </mxCell>
        <mxCell id="3uXmnmBapKz6rdt-0X6b-6" value="id_rota" style="shape=partialRectangle;connectable=0;fillColor=none;top=0;left=0;bottom=0;right=0;align=left;spacingLeft=6;fontStyle=1;overflow=hidden;whiteSpace=wrap;html=1;" vertex="1" parent="3uXmnmBapKz6rdt-0X6b-4">
          <mxGeometry x="30" width="110" height="30" as="geometry">
            <mxRectangle width="110" height="30" as="alternateBounds" />
          </mxGeometry>
        </mxCell>
        <mxCell id="3uXmnmBapKz6rdt-0X6b-7" value="INT" style="shape=partialRectangle;connectable=0;fillColor=none;top=0;left=0;bottom=0;right=0;align=left;spacingLeft=6;fontStyle=1;overflow=hidden;whiteSpace=wrap;html=1;" vertex="1" parent="3uXmnmBapKz6rdt-0X6b-4">
          <mxGeometry x="140" width="100" height="30" as="geometry">
            <mxRectangle width="100" height="30" as="alternateBounds" />
          </mxGeometry>
        </mxCell>
        <mxCell id="3uXmnmBapKz6rdt-0X6b-8" style="shape=tableRow;horizontal=0;startSize=0;swimlaneHead=0;swimlaneBody=0;fillColor=none;collapsible=0;dropTarget=0;points=[[0,0.5],[1,0.5]];portConstraint=eastwest;top=0;left=0;right=0;bottom=1;fontStyle=0" vertex="1" parent="3uXmnmBapKz6rdt-0X6b-3">
          <mxGeometry y="60" width="240" height="30" as="geometry" />
        </mxCell>
        <mxCell id="3uXmnmBapKz6rdt-0X6b-9" value="FK" style="shape=partialRectangle;connectable=0;fillColor=none;top=0;left=0;bottom=0;right=0;fontStyle=1;overflow=hidden;whiteSpace=wrap;html=1;" vertex="1" parent="3uXmnmBapKz6rdt-0X6b-8">
          <mxGeometry width="30" height="30" as="geometry">
            <mxRectangle width="30" height="30" as="alternateBounds" />
          </mxGeometry>
        </mxCell>
        <mxCell id="3uXmnmBapKz6rdt-0X6b-10" value="id_pedido" style="shape=partialRectangle;connectable=0;fillColor=none;top=0;left=0;bottom=0;right=0;align=left;spacingLeft=6;fontStyle=1;overflow=hidden;whiteSpace=wrap;html=1;" vertex="1" parent="3uXmnmBapKz6rdt-0X6b-8">
          <mxGeometry x="30" width="110" height="30" as="geometry">
            <mxRectangle width="110" height="30" as="alternateBounds" />
          </mxGeometry>
        </mxCell>
        <mxCell id="3uXmnmBapKz6rdt-0X6b-11" value="INT" style="shape=partialRectangle;connectable=0;fillColor=none;top=0;left=0;bottom=0;right=0;align=left;spacingLeft=6;fontStyle=1;overflow=hidden;whiteSpace=wrap;html=1;" vertex="1" parent="3uXmnmBapKz6rdt-0X6b-8">
          <mxGeometry x="140" width="100" height="30" as="geometry">
            <mxRectangle width="100" height="30" as="alternateBounds" />
          </mxGeometry>
        </mxCell>
        <mxCell id="3uXmnmBapKz6rdt-0X6b-12" value="" style="edgeStyle=elbowEdgeStyle;fontSize=12;html=1;endArrow=ERoneToMany;startArrow=ERmandOne;rounded=0;" edge="1" parent="1" source="3uXmnmBapKz6rdt-0X6b-3" target="nXBPSPl5BzmQNC-E3DmG-6">
          <mxGeometry width="100" height="100" relative="1" as="geometry">
            <mxPoint x="-270" y="530" as="sourcePoint" />
            <mxPoint x="-170" y="430" as="targetPoint" />
          </mxGeometry>
        </mxCell>
        <mxCell id="3uXmnmBapKz6rdt-0X6b-13" value="" style="fontSize=12;html=1;endArrow=ERzeroToOne;startArrow=ERmandOne;rounded=0;edgeStyle=elbowEdgeStyle;elbow=vertical;" edge="1" parent="1" source="3uXmnmBapKz6rdt-0X6b-3" target="TJUkrI_AIj82atkH7xTK-18">
          <mxGeometry width="100" height="100" relative="1" as="geometry">
            <mxPoint x="-20" y="240" as="sourcePoint" />
            <mxPoint x="-610" y="470" as="targetPoint" />
          </mxGeometry>
        </mxCell>
        <mxCell id="3uXmnmBapKz6rdt-0X6b-22" value="" style="fontSize=12;html=1;endArrow=ERzeroToMany;startArrow=ERmandOne;rounded=0;edgeStyle=elbowEdgeStyle;entryX=1;entryY=0.5;entryDx=0;entryDy=0;exitX=0;exitY=0.5;exitDx=0;exitDy=0;" edge="1" parent="1" source="TJUkrI_AIj82atkH7xTK-147" target="nXBPSPl5BzmQNC-E3DmG-6">
          <mxGeometry width="100" height="100" relative="1" as="geometry">
            <mxPoint x="140" y="700" as="sourcePoint" />
            <mxPoint x="240" y="600" as="targetPoint" />
            <Array as="points">
              <mxPoint x="-150" y="620" />
            </Array>
          </mxGeometry>
        </mxCell>
        <mxCell id="3uXmnmBapKz6rdt-0X6b-23" value="" style="edgeStyle=orthogonalEdgeStyle;fontSize=12;html=1;endArrow=ERzeroToMany;startArrow=ERmandOne;rounded=0;elbow=vertical;" edge="1" parent="1" source="TJUkrI_AIj82atkH7xTK-143" target="nXBPSPl5BzmQNC-E3DmG-2">
          <mxGeometry width="100" height="100" relative="1" as="geometry">
            <mxPoint x="-130" y="630" as="sourcePoint" />
            <mxPoint x="-30" y="740" as="targetPoint" />
            <Array as="points">
              <mxPoint x="-170" y="565" />
              <mxPoint x="-170" y="605" />
            </Array>
          </mxGeometry>
        </mxCell>
        <mxCell id="Ly-2V_qYKHf-sMu4FMtD-1" value="pedidos_em_cliente" style="shape=table;startSize=30;container=1;collapsible=1;childLayout=tableLayout;fixedRows=1;rowLines=0;fontStyle=1;align=center;resizeLast=1;html=1;fillColor=#ffe6cc;strokeColor=#d79b00;" vertex="1" parent="1">
          <mxGeometry x="-760" y="240" width="240" height="90" as="geometry" />
        </mxCell>
        <mxCell id="Ly-2V_qYKHf-sMu4FMtD-2" style="shape=tableRow;horizontal=0;startSize=0;swimlaneHead=0;swimlaneBody=0;fillColor=none;collapsible=0;dropTarget=0;points=[[0,0.5],[1,0.5]];portConstraint=eastwest;top=0;left=0;right=0;bottom=1;fontStyle=0" vertex="1" parent="Ly-2V_qYKHf-sMu4FMtD-1">
          <mxGeometry y="30" width="240" height="30" as="geometry" />
        </mxCell>
        <mxCell id="Ly-2V_qYKHf-sMu4FMtD-3" value="FK" style="shape=partialRectangle;connectable=0;fillColor=none;top=0;left=0;bottom=0;right=0;fontStyle=1;overflow=hidden;whiteSpace=wrap;html=1;" vertex="1" parent="Ly-2V_qYKHf-sMu4FMtD-2">
          <mxGeometry width="30" height="30" as="geometry">
            <mxRectangle width="30" height="30" as="alternateBounds" />
          </mxGeometry>
        </mxCell>
        <mxCell id="Ly-2V_qYKHf-sMu4FMtD-4" value="id_cliente" style="shape=partialRectangle;connectable=0;fillColor=none;top=0;left=0;bottom=0;right=0;align=left;spacingLeft=6;fontStyle=1;overflow=hidden;whiteSpace=wrap;html=1;" vertex="1" parent="Ly-2V_qYKHf-sMu4FMtD-2">
          <mxGeometry x="30" width="110" height="30" as="geometry">
            <mxRectangle width="110" height="30" as="alternateBounds" />
          </mxGeometry>
        </mxCell>
        <mxCell id="Ly-2V_qYKHf-sMu4FMtD-5" value="INT" style="shape=partialRectangle;connectable=0;fillColor=none;top=0;left=0;bottom=0;right=0;align=left;spacingLeft=6;fontStyle=1;overflow=hidden;whiteSpace=wrap;html=1;" vertex="1" parent="Ly-2V_qYKHf-sMu4FMtD-2">
          <mxGeometry x="140" width="100" height="30" as="geometry">
            <mxRectangle width="100" height="30" as="alternateBounds" />
          </mxGeometry>
        </mxCell>
        <mxCell id="Ly-2V_qYKHf-sMu4FMtD-6" style="shape=tableRow;horizontal=0;startSize=0;swimlaneHead=0;swimlaneBody=0;fillColor=none;collapsible=0;dropTarget=0;points=[[0,0.5],[1,0.5]];portConstraint=eastwest;top=0;left=0;right=0;bottom=1;fontStyle=0" vertex="1" parent="Ly-2V_qYKHf-sMu4FMtD-1">
          <mxGeometry y="60" width="240" height="30" as="geometry" />
        </mxCell>
        <mxCell id="Ly-2V_qYKHf-sMu4FMtD-7" value="FK" style="shape=partialRectangle;connectable=0;fillColor=none;top=0;left=0;bottom=0;right=0;fontStyle=1;overflow=hidden;whiteSpace=wrap;html=1;" vertex="1" parent="Ly-2V_qYKHf-sMu4FMtD-6">
          <mxGeometry width="30" height="30" as="geometry">
            <mxRectangle width="30" height="30" as="alternateBounds" />
          </mxGeometry>
        </mxCell>
        <mxCell id="Ly-2V_qYKHf-sMu4FMtD-8" value="id_pedido" style="shape=partialRectangle;connectable=0;fillColor=none;top=0;left=0;bottom=0;right=0;align=left;spacingLeft=6;fontStyle=1;overflow=hidden;whiteSpace=wrap;html=1;" vertex="1" parent="Ly-2V_qYKHf-sMu4FMtD-6">
          <mxGeometry x="30" width="110" height="30" as="geometry">
            <mxRectangle width="110" height="30" as="alternateBounds" />
          </mxGeometry>
        </mxCell>
        <mxCell id="Ly-2V_qYKHf-sMu4FMtD-9" value="INT" style="shape=partialRectangle;connectable=0;fillColor=none;top=0;left=0;bottom=0;right=0;align=left;spacingLeft=6;fontStyle=1;overflow=hidden;whiteSpace=wrap;html=1;" vertex="1" parent="Ly-2V_qYKHf-sMu4FMtD-6">
          <mxGeometry x="140" width="100" height="30" as="geometry">
            <mxRectangle width="100" height="30" as="alternateBounds" />
          </mxGeometry>
        </mxCell>
        <mxCell id="Ly-2V_qYKHf-sMu4FMtD-10" value="" style="fontSize=12;html=1;endArrow=ERzeroToMany;startArrow=ERmandOne;rounded=0;edgeStyle=elbowEdgeStyle;elbow=vertical;" edge="1" parent="1" source="Ly-2V_qYKHf-sMu4FMtD-2" target="TJUkrI_AIj82atkH7xTK-181">
          <mxGeometry width="100" height="100" relative="1" as="geometry">
            <mxPoint x="-820" y="270" as="sourcePoint" />
            <mxPoint x="-1080" y="250" as="targetPoint" />
          </mxGeometry>
        </mxCell>
        <mxCell id="Ly-2V_qYKHf-sMu4FMtD-11" value="" style="fontSize=12;html=1;endArrow=ERzeroToOne;startArrow=ERmandOne;rounded=0;edgeStyle=elbowEdgeStyle;" edge="1" parent="1" target="TJUkrI_AIj82atkH7xTK-18">
          <mxGeometry width="100" height="100" relative="1" as="geometry">
            <mxPoint x="-640" y="330" as="sourcePoint" />
            <mxPoint x="-640" y="440" as="targetPoint" />
            <Array as="points">
              <mxPoint x="-640" y="400" />
            </Array>
          </mxGeometry>
        </mxCell>
        <mxCell id="Ly-2V_qYKHf-sMu4FMtD-20" value="" style="fontSize=12;html=1;endArrow=ERzeroToMany;startArrow=ERmandOne;rounded=0;edgeStyle=elbowEdgeStyle;entryX=0;entryY=0.5;entryDx=0;entryDy=0;" edge="1" parent="1" source="TJUkrI_AIj82atkH7xTK-185" target="TJUkrI_AIj82atkH7xTK-19">
          <mxGeometry width="100" height="100" relative="1" as="geometry">
            <mxPoint x="-1080" y="260" as="sourcePoint" />
            <mxPoint x="-740.0000000000002" y="535" as="targetPoint" />
            <Array as="points">
              <mxPoint x="-790" y="370" />
            </Array>
          </mxGeometry>
        </mxCell>
        <mxCell id="Ly-2V_qYKHf-sMu4FMtD-21" value="" style="fontSize=12;html=1;endArrow=ERzeroToMany;startArrow=ERmandOne;rounded=0;edgeStyle=elbowEdgeStyle;entryX=0;entryY=0.5;entryDx=0;entryDy=0;" edge="1" parent="1" source="TJUkrI_AIj82atkH7xTK-189" target="TJUkrI_AIj82atkH7xTK-23">
          <mxGeometry width="100" height="100" relative="1" as="geometry">
            <mxPoint x="-1079.9999999999995" y="280" as="sourcePoint" />
            <mxPoint x="-670.0000000000002" y="390" as="targetPoint" />
            <Array as="points">
              <mxPoint x="-810" y="430" />
            </Array>
          </mxGeometry>
        </mxCell>
        <mxCell id="5YUUuFZC8pEfJffn3rSy-1" value="funcoes" style="shape=table;startSize=30;container=1;collapsible=1;childLayout=tableLayout;fixedRows=1;rowLines=0;fontStyle=1;align=center;resizeLast=1;html=1;fillColor=#dae8fc;strokeColor=#6c8ebf;" vertex="1" parent="1">
          <mxGeometry x="-120" y="650" width="240.00000000000023" height="90" as="geometry" />
        </mxCell>
        <mxCell id="5YUUuFZC8pEfJffn3rSy-2" style="shape=tableRow;horizontal=0;startSize=0;swimlaneHead=0;swimlaneBody=0;fillColor=none;collapsible=0;dropTarget=0;points=[[0,0.5],[1,0.5]];portConstraint=eastwest;top=0;left=0;right=0;bottom=1;fontStyle=0" vertex="1" parent="5YUUuFZC8pEfJffn3rSy-1">
          <mxGeometry y="30" width="240.00000000000023" height="30" as="geometry" />
        </mxCell>
        <mxCell id="5YUUuFZC8pEfJffn3rSy-3" value="PK" style="shape=partialRectangle;connectable=0;fillColor=none;top=0;left=0;bottom=0;right=0;fontStyle=1;overflow=hidden;whiteSpace=wrap;html=1;" vertex="1" parent="5YUUuFZC8pEfJffn3rSy-2">
          <mxGeometry width="30" height="30" as="geometry">
            <mxRectangle width="30" height="30" as="alternateBounds" />
          </mxGeometry>
        </mxCell>
        <mxCell id="5YUUuFZC8pEfJffn3rSy-4" value="id_funcao" style="shape=partialRectangle;connectable=0;fillColor=none;top=0;left=0;bottom=0;right=0;align=left;spacingLeft=6;fontStyle=1;overflow=hidden;whiteSpace=wrap;html=1;" vertex="1" parent="5YUUuFZC8pEfJffn3rSy-2">
          <mxGeometry x="30" width="110" height="30" as="geometry">
            <mxRectangle width="110" height="30" as="alternateBounds" />
          </mxGeometry>
        </mxCell>
        <mxCell id="5YUUuFZC8pEfJffn3rSy-5" value="INT" style="shape=partialRectangle;connectable=0;fillColor=none;top=0;left=0;bottom=0;right=0;align=left;spacingLeft=6;fontStyle=1;overflow=hidden;whiteSpace=wrap;html=1;" vertex="1" parent="5YUUuFZC8pEfJffn3rSy-2">
          <mxGeometry x="140" width="100.00000000000023" height="30" as="geometry">
            <mxRectangle width="100.00000000000023" height="30" as="alternateBounds" />
          </mxGeometry>
        </mxCell>
        <mxCell id="5YUUuFZC8pEfJffn3rSy-6" style="shape=tableRow;horizontal=0;startSize=0;swimlaneHead=0;swimlaneBody=0;fillColor=none;collapsible=0;dropTarget=0;points=[[0,0.5],[1,0.5]];portConstraint=eastwest;top=0;left=0;right=0;bottom=1;fontStyle=0" vertex="1" parent="5YUUuFZC8pEfJffn3rSy-1">
          <mxGeometry y="60" width="240.00000000000023" height="30" as="geometry" />
        </mxCell>
        <mxCell id="5YUUuFZC8pEfJffn3rSy-7" value="" style="shape=partialRectangle;connectable=0;fillColor=none;top=0;left=0;bottom=0;right=0;fontStyle=1;overflow=hidden;whiteSpace=wrap;html=1;" vertex="1" parent="5YUUuFZC8pEfJffn3rSy-6">
          <mxGeometry width="30" height="30" as="geometry">
            <mxRectangle width="30" height="30" as="alternateBounds" />
          </mxGeometry>
        </mxCell>
        <mxCell id="5YUUuFZC8pEfJffn3rSy-8" value="nome" style="shape=partialRectangle;connectable=0;fillColor=none;top=0;left=0;bottom=0;right=0;align=left;spacingLeft=6;fontStyle=1;overflow=hidden;whiteSpace=wrap;html=1;" vertex="1" parent="5YUUuFZC8pEfJffn3rSy-6">
          <mxGeometry x="30" width="110" height="30" as="geometry">
            <mxRectangle width="110" height="30" as="alternateBounds" />
          </mxGeometry>
        </mxCell>
        <mxCell id="5YUUuFZC8pEfJffn3rSy-9" value="VARCHAR" style="shape=partialRectangle;connectable=0;fillColor=none;top=0;left=0;bottom=0;right=0;align=left;spacingLeft=6;fontStyle=1;overflow=hidden;whiteSpace=wrap;html=1;" vertex="1" parent="5YUUuFZC8pEfJffn3rSy-6">
          <mxGeometry x="140" width="100.00000000000023" height="30" as="geometry">
            <mxRectangle width="100.00000000000023" height="30" as="alternateBounds" />
          </mxGeometry>
        </mxCell>
      </root>
    </mxGraphModel>
  </diagram>
</mxfile>
